<svg width="299" height="299" viewBox="0 0 299 299" fill="none" xmlns="http://www.w3.org/2000/svg">
<rect width="299" height="299" rx="149.5" fill="#E9D0C2"/>
<path d="M221.295 125.804C222.192 125.843 223.272 126.189 224.061 127.176C224.801 128.1 224.918 129.146 224.918 129.8C224.918 131.676 223.966 133.194 222.839 134.321C222.683 134.477 222.558 134.617 222.456 134.737C222.702 134.848 223.023 134.965 223.43 135.082C225.688 135.548 228.44 135.8 231.718 135.8C235.551 135.8 239.529 135.48 243.655 134.836L243.668 134.834C247.945 134.186 251.169 133.429 253.427 132.604C254.966 131.961 255.902 131.508 256.364 131.232C257.301 130.622 258.538 130 259.918 130L260.148 130.004C262.448 130.092 264.076 131.5 265.071 133.224C266.135 134.852 266.718 136.66 266.718 138.6C266.718 140.841 265.922 143.178 263.591 144.414C257.097 148.258 250.67 152.168 244.308 156.144L244.289 156.156L244.27 156.168C238.09 159.902 232.636 164.268 227.895 169.265C224.893 172.429 222.372 176.15 220.348 180.454C220.914 180.192 221.498 179.926 222.1 179.658C225.955 177.871 230.007 176.361 234.253 175.127C238.719 173.734 242.884 173 246.718 173C249.006 173 251.061 173.211 252.781 173.727C254.429 174.221 256.031 175.081 257.095 176.568C258.468 178.264 259.518 180.236 259.518 182.4C259.518 183.534 259.448 184.667 259.314 185.798C259.296 186.937 259.123 188.065 258.704 189.114L258.683 189.167L258.66 189.219C257.983 190.74 256.558 192.8 253.918 192.8C253.461 192.8 252.693 192.722 251.942 192.221C251.088 191.651 250.644 190.799 250.509 189.993C250.393 189.293 250.513 188.69 250.615 188.322C250.725 187.926 250.882 187.563 251.035 187.259L251.119 187.091L251.222 186.936C251.343 186.755 251.434 186.609 251.501 186.496C251.505 186.471 251.507 186.443 251.509 186.412C251.234 186.238 250.609 185.965 249.404 185.756C246.504 185.252 243.61 185 240.718 185C237.029 185 232.786 185.835 227.956 187.615L227.913 187.631C223.092 189.325 219.214 191.05 216.23 192.791L216.173 192.824L216.116 192.854C214.838 193.527 213.813 194.049 213.058 194.408C212.686 194.586 212.34 194.742 212.045 194.86C211.9 194.918 211.725 194.984 211.542 195.04C211.439 195.071 211.025 195.2 210.518 195.2C209.356 195.2 207.625 194.81 206.685 193.087C205.926 191.694 206.161 190.205 206.409 189.272H206.408C208.092 182.537 210.837 176.403 214.652 170.893L214.656 170.886L214.661 170.88C218.518 165.37 223.053 160.151 228.255 155.222L228.269 155.209L228.284 155.195C231.098 152.598 234.009 149.983 237.014 147.349C236.226 147.382 235.393 147.4 234.518 147.4C231.703 147.4 228.705 147.189 225.53 146.774L225.456 146.765L225.381 146.752C222.235 146.18 219.419 145.304 216.977 144.083C215.583 143.386 214.344 142.44 213.456 141.163C212.547 139.857 212.119 138.367 212.119 136.8C212.119 134.684 212.656 132.683 213.918 131L213.986 130.909L214.06 130.824C215.071 129.668 216.155 128.583 217.309 127.57C218.146 126.759 219.44 125.8 221.119 125.8L221.295 125.804ZM209.625 188.825C209.518 189.215 209.416 189.606 209.318 190C209.068 190.916 209.131 191.547 209.505 191.891C209.618 191.994 209.759 192.071 209.927 192.123C210.096 192.175 210.293 192.2 210.518 192.2V192.199C209.319 192.199 208.919 191.466 209.319 190C209.417 189.606 209.518 189.214 209.625 188.825ZM253.744 189.781C253.765 189.786 253.788 189.79 253.812 189.793C253.788 189.79 253.765 189.786 253.744 189.781ZM254.144 189.781C254.165 189.778 254.186 189.776 254.208 189.771C254.186 189.776 254.165 189.778 254.144 189.781ZM254.286 189.753C254.305 189.748 254.324 189.744 254.343 189.738C254.324 189.744 254.305 189.748 254.286 189.753ZM253.612 189.728C253.62 189.733 253.629 189.737 253.638 189.741C253.629 189.737 253.62 189.733 253.612 189.728ZM253.563 189.688C253.569 189.695 253.576 189.7 253.583 189.706C253.576 189.7 253.569 189.695 253.563 189.688ZM254.449 189.703C254.458 189.699 254.468 189.696 254.478 189.692C254.468 189.696 254.458 189.699 254.449 189.703ZM253.521 189.639C253.527 189.648 253.534 189.656 253.541 189.664C253.534 189.656 253.527 189.648 253.521 189.639ZM254.591 189.642C254.597 189.639 254.603 189.636 254.609 189.633C254.603 189.636 254.597 189.639 254.591 189.642ZM253.49 189.578C253.495 189.591 253.501 189.603 253.507 189.614C253.501 189.603 253.495 189.591 253.49 189.578ZM254.72 189.57C254.726 189.567 254.733 189.563 254.739 189.56C254.733 189.563 254.726 189.567 254.72 189.57ZM253.471 189.51C253.474 189.523 253.477 189.536 253.481 189.549C253.477 189.536 253.474 189.523 253.471 189.51ZM254.829 189.499C254.843 189.489 254.858 189.479 254.873 189.468C254.858 189.479 254.843 189.489 254.829 189.499ZM253.462 189.435C253.463 189.449 253.465 189.464 253.466 189.478C253.465 189.464 253.463 189.449 253.462 189.435ZM253.464 189.345C253.463 189.366 253.461 189.386 253.461 189.405C253.462 189.386 253.463 189.366 253.464 189.345ZM254.954 189.403C254.967 189.392 254.98 189.381 254.993 189.37C254.98 189.381 254.967 189.392 254.954 189.403ZM253.477 189.254C253.473 189.276 253.469 189.298 253.466 189.319C253.469 189.298 253.473 189.276 253.477 189.254ZM253.506 189.123C253.497 189.156 253.489 189.187 253.483 189.218C253.489 189.187 253.497 189.156 253.506 189.123ZM253.718 188.6C253.67 188.696 253.629 188.786 253.594 188.871C253.629 188.786 253.67 188.696 253.718 188.6ZM209.956 187.66C209.876 187.929 209.802 188.199 209.726 188.47C209.802 188.199 209.876 187.929 209.956 187.66ZM254.319 187.6H254.318C254.218 187.8 254.081 188.037 253.906 188.312L254.069 188.05C254.169 187.883 254.252 187.733 254.319 187.6ZM210.294 186.558C210.216 186.805 210.14 187.054 210.065 187.303C210.14 187.054 210.216 186.805 210.294 186.558ZM254.513 186.039C254.516 186.092 254.518 186.146 254.518 186.2C254.518 186.334 254.515 186.463 254.506 186.588C254.515 186.463 254.519 186.334 254.519 186.2C254.519 186.092 254.512 185.986 254.5 185.882L254.513 186.039ZM215.528 186.309C215.247 186.474 214.977 186.638 214.718 186.8C214.977 186.638 215.247 186.474 215.528 186.309ZM216.392 185.812C216.16 185.943 215.935 186.072 215.716 186.2C215.935 186.072 216.16 185.943 216.392 185.812ZM210.682 185.386C210.608 185.603 210.536 185.821 210.464 186.039C210.536 185.821 210.608 185.603 210.682 185.386ZM225.109 185.453C224.862 185.545 224.618 185.637 224.376 185.729C224.907 185.527 225.45 185.326 226.003 185.126L225.109 185.453ZM217.348 185.288C217.095 185.424 216.849 185.558 216.609 185.691C216.849 185.558 217.095 185.424 217.348 185.288ZM254.406 185.432H254.407H254.406ZM256.347 185.341C256.365 185.187 256.382 185.034 256.397 184.88C256.382 185.034 256.365 185.187 256.347 185.341ZM218.278 184.8C218.051 184.917 217.828 185.033 217.611 185.148C217.828 185.033 218.051 184.917 218.278 184.8ZM211.079 184.27C210.984 184.527 210.892 184.787 210.801 185.047C210.892 184.787 210.984 184.527 211.079 184.27ZM254.069 184.751H254.07H254.069ZM256.419 184.625C256.435 184.45 256.449 184.275 256.46 184.1C256.449 184.275 256.435 184.45 256.419 184.625ZM219.233 184.316C219.042 184.411 218.855 184.505 218.67 184.599C218.855 184.505 219.043 184.411 219.233 184.316ZM253.507 184.158H253.508H253.507ZM220.598 183.65C220.305 183.79 220.018 183.929 219.737 184.066C220.018 183.929 220.305 183.79 220.598 183.65ZM211.481 183.21C211.39 183.443 211.301 183.677 211.212 183.912C211.301 183.677 211.39 183.443 211.481 183.21ZM256.472 183.912C256.484 183.715 256.493 183.517 256.5 183.319C256.493 183.517 256.484 183.715 256.472 183.912ZM252.721 183.653H252.722H252.721ZM223.318 182.4L222.002 182.994C221.585 183.186 221.178 183.375 220.783 183.562C221.583 183.183 222.429 182.796 223.319 182.4C223.349 182.386 223.379 182.372 223.409 182.358C223.378 182.372 223.348 182.386 223.318 182.4ZM211.93 182.099C211.833 182.331 211.738 182.564 211.644 182.798C211.738 182.564 211.833 182.331 211.93 182.099ZM224.641 181.801C224.561 181.836 224.482 181.872 224.402 181.907C224.482 181.872 224.561 181.836 224.641 181.801ZM212.368 181.08C212.275 181.289 212.184 181.5 212.094 181.711C212.184 181.5 212.275 181.289 212.368 181.08ZM225.953 181.236C225.849 181.28 225.746 181.322 225.643 181.366C225.746 181.322 225.849 181.28 225.953 181.236ZM227.167 180.737C227.108 180.761 227.049 180.784 226.99 180.808C227.049 180.784 227.108 180.761 227.167 180.737ZM212.875 179.971C212.767 180.199 212.66 180.428 212.556 180.658C212.66 180.428 212.767 180.199 212.875 179.971ZM228.414 180.247C228.36 180.268 228.307 180.288 228.253 180.309C228.307 180.288 228.36 180.268 228.414 180.247ZM230.243 179.574C229.932 179.685 229.622 179.797 229.313 179.911C229.622 179.797 229.932 179.685 230.243 179.574ZM213.382 178.924C213.267 179.156 213.152 179.389 213.04 179.623C213.152 179.389 213.267 179.156 213.382 178.924ZM231.805 179.035C231.428 179.161 231.053 179.288 230.68 179.419C231.053 179.288 231.428 179.161 231.805 179.035ZM232.245 178.888C232.202 178.902 232.159 178.916 232.117 178.93C232.601 178.77 233.088 178.615 233.578 178.463L232.245 178.888ZM213.922 177.871C213.797 178.109 213.672 178.348 213.55 178.588C213.672 178.348 213.797 178.109 213.922 177.871ZM254.552 178.175C254.537 178.156 254.523 178.137 254.507 178.119C254.523 178.137 254.537 178.156 254.552 178.175ZM254.296 177.891C254.285 177.88 254.274 177.868 254.263 177.857C254.274 177.868 254.285 177.88 254.296 177.891ZM254.197 177.796C254.172 177.773 254.147 177.75 254.122 177.728C254.147 177.75 254.172 177.773 254.197 177.796ZM254.042 177.66C254.025 177.647 254.009 177.633 253.993 177.62C254.009 177.633 254.025 177.647 254.042 177.66ZM214.484 176.835C214.355 177.066 214.227 177.298 214.102 177.531C214.227 177.298 214.355 177.066 214.484 176.835ZM253.878 177.531C253.863 177.52 253.848 177.508 253.833 177.497C253.848 177.508 253.863 177.52 253.878 177.531ZM253.729 177.425C253.712 177.413 253.695 177.401 253.677 177.39C253.695 177.401 253.712 177.413 253.729 177.425ZM253.394 177.215C253.376 177.205 253.358 177.196 253.34 177.186C253.358 177.196 253.376 177.205 253.394 177.215ZM252.281 176.72C252.205 176.693 252.128 176.667 252.049 176.643C252.128 176.667 252.205 176.693 252.281 176.72ZM251.793 176.565C251.718 176.544 251.64 176.523 251.562 176.503C251.64 176.523 251.718 176.544 251.793 176.565ZM215.079 175.796C214.936 176.039 214.794 176.281 214.655 176.526C214.794 176.281 214.936 176.039 215.079 175.796ZM251.277 176.432C251.195 176.412 251.111 176.395 251.026 176.377C251.111 176.395 251.195 176.412 251.277 176.432ZM250.749 176.321C250.653 176.303 250.555 176.287 250.457 176.271C250.555 176.287 250.653 176.303 250.749 176.321ZM250.161 176.223C250.057 176.207 249.953 176.194 249.846 176.181C249.953 176.194 250.057 176.207 250.161 176.223ZM249.551 176.144C249.459 176.133 249.366 176.124 249.272 176.115C249.366 176.124 249.459 176.133 249.551 176.144ZM248.869 176.078C248.839 176.076 248.81 176.074 248.781 176.072C248.81 176.074 248.839 176.076 248.869 176.078ZM218.644 170.486C218.124 171.186 217.615 171.89 217.119 172.6C216.894 172.925 216.672 173.252 216.455 173.582C216.029 174.228 215.619 174.882 215.224 175.546C215.821 174.543 216.453 173.561 217.119 172.6C217.615 171.89 218.124 171.186 218.644 170.486ZM219.949 168.772C219.835 168.919 219.722 169.066 219.609 169.213C219.722 169.066 219.835 168.919 219.949 168.772ZM220.708 167.812C220.568 167.985 220.431 168.16 220.293 168.335C220.431 168.16 220.568 167.985 220.708 167.812ZM221.528 166.802C221.358 167.008 221.19 167.214 221.023 167.421C221.19 167.214 221.358 167.008 221.528 166.802ZM226.652 166.232C226.338 166.552 226.027 166.875 225.718 167.2C226.027 166.875 226.338 166.552 226.652 166.232ZM222.248 165.937C222.083 166.132 221.919 166.328 221.756 166.524C221.919 166.328 222.083 166.132 222.248 165.937ZM223.012 165.04C222.866 165.21 222.72 165.379 222.575 165.55C222.72 165.379 222.866 165.21 223.012 165.04ZM223.834 164.099C223.699 164.252 223.564 164.405 223.429 164.559C223.564 164.405 223.699 164.252 223.834 164.099ZM224.759 163.068C224.561 163.287 224.363 163.505 224.167 163.725C224.363 163.505 224.561 163.287 224.759 163.068ZM225.573 162.184C225.385 162.385 225.198 162.586 225.013 162.788C225.198 162.586 225.385 162.385 225.573 162.184ZM226.513 161.187C226.3 161.409 226.089 161.633 225.878 161.857C226.089 161.633 226.3 161.409 226.513 161.187ZM227.352 160.319C227.125 160.552 226.899 160.784 226.674 161.018C226.899 160.784 227.125 160.552 227.352 160.319ZM228.33 159.333C228.981 158.684 229.644 158.04 230.319 157.4C231.109 156.671 231.907 155.941 232.712 155.209C231.907 155.941 231.108 156.671 230.318 157.4L229.376 158.303C229.024 158.645 228.675 158.988 228.33 159.333ZM242.581 146.487H242.582H242.581ZM232.518 144.363C232.851 144.375 233.182 144.385 233.509 144.391L234.518 144.4V144.399C233.863 144.399 233.197 144.387 232.518 144.363ZM231.542 144.32C231.799 144.334 232.053 144.345 232.306 144.354C232.053 144.345 231.799 144.334 231.542 144.32ZM230.582 144.263C230.771 144.275 230.959 144.286 231.146 144.297C230.959 144.286 230.771 144.275 230.582 144.263ZM229.582 144.188C229.751 144.202 229.919 144.215 230.087 144.228C229.919 144.215 229.751 144.202 229.582 144.188ZM228.555 144.097C228.719 144.112 228.881 144.128 229.043 144.143C228.881 144.128 228.719 144.112 228.555 144.097ZM227.458 143.983C227.64 144.003 227.82 144.023 228 144.042C227.82 144.023 227.64 144.003 227.458 143.983ZM225.918 143.8C226.277 143.847 226.634 143.889 226.987 143.931C226.634 143.889 226.277 143.847 225.918 143.8ZM217.583 140.987C217.812 141.132 218.057 141.27 218.318 141.4C219.651 142.067 221.141 142.63 222.787 143.088C221.141 142.63 219.652 142.067 218.319 141.4C218.058 141.27 217.813 141.132 217.583 140.987ZM217.247 140.761C217.33 140.82 217.416 140.877 217.504 140.935C217.416 140.877 217.33 140.82 217.247 140.761ZM216.948 140.535C217.014 140.589 217.084 140.64 217.154 140.692C217.084 140.64 217.014 140.589 216.948 140.535ZM216.651 140.28C216.716 140.34 216.784 140.398 216.853 140.456C216.784 140.398 216.716 140.34 216.651 140.28ZM216.396 140.029C216.456 140.092 216.519 140.155 216.583 140.216C216.519 140.155 216.456 140.092 216.396 140.029ZM216.163 139.769C216.217 139.834 216.274 139.898 216.333 139.962C216.274 139.898 216.217 139.834 216.163 139.769ZM215.957 139.501C216.001 139.563 216.047 139.625 216.095 139.686C216.047 139.625 216.001 139.563 215.957 139.501ZM215.768 139.215C215.806 139.278 215.846 139.34 215.887 139.401C215.846 139.34 215.806 139.278 215.768 139.215ZM215.59 138.894C215.628 138.969 215.667 139.043 215.708 139.116C215.667 139.043 215.628 138.969 215.59 138.894ZM215.457 138.597C215.488 138.673 215.52 138.748 215.555 138.822C215.52 138.748 215.488 138.673 215.457 138.597ZM215.328 138.237C215.356 138.331 215.388 138.423 215.422 138.514C215.388 138.423 215.356 138.331 215.328 138.237ZM215.245 137.931C215.266 138.021 215.289 138.11 215.315 138.198C215.289 138.11 215.266 138.021 215.245 137.931ZM215.13 137.17C215.147 137.408 215.18 137.639 215.228 137.863C215.155 137.525 215.119 137.17 215.119 136.8L215.13 137.17ZM245.846 137.522C246.843 137.354 247.786 137.178 248.674 136.994C247.786 137.178 246.843 137.354 245.846 137.522ZM252.995 135.911C252.634 136.021 252.26 136.13 251.871 136.236C252.455 136.077 253.006 135.913 253.525 135.744L252.995 135.911ZM262.869 135.378C262.93 135.489 262.989 135.601 263.043 135.713C262.989 135.601 262.93 135.489 262.869 135.378ZM254.518 135.4C254.496 135.408 254.474 135.416 254.453 135.424C254.475 135.416 254.497 135.408 254.519 135.4C254.683 135.332 254.84 135.263 254.994 135.197C254.84 135.263 254.682 135.332 254.518 135.4ZM257.647 133.956C257.451 134.065 257.226 134.181 256.971 134.307C256.844 134.369 256.71 134.433 256.568 134.5H256.569C256.994 134.3 257.353 134.119 257.647 133.956ZM215.793 133.649C215.681 133.875 215.583 134.109 215.499 134.354C215.583 134.11 215.681 133.875 215.793 133.65V133.649ZM216.318 132.8C216.218 132.933 216.125 133.071 216.038 133.213C216.125 133.071 216.219 132.933 216.319 132.8H216.318ZM259.018 133.2H259.019H259.018ZM220.856 132.054C220.901 132.006 220.946 131.959 220.989 131.911C220.946 131.959 220.901 132.006 220.856 132.054ZM218.146 130.878C217.892 131.124 217.643 131.374 217.397 131.628C217.766 131.247 218.143 130.875 218.531 130.513L218.146 130.878ZM221.116 131.758C221.155 131.709 221.195 131.662 221.232 131.613C221.195 131.662 221.155 131.709 221.116 131.758ZM221.399 131.377C221.407 131.365 221.415 131.353 221.422 131.341C221.415 131.353 221.407 131.365 221.399 131.377ZM221.569 131.092C221.575 131.081 221.581 131.07 221.586 131.059C221.581 131.07 221.575 131.081 221.569 131.092ZM221.706 130.807C221.715 130.784 221.724 130.762 221.733 130.739C221.724 130.762 221.715 130.784 221.706 130.807ZM221.805 130.535C221.815 130.503 221.824 130.47 221.833 130.438C221.824 130.47 221.815 130.503 221.805 130.535ZM221.846 130.385C221.853 130.357 221.859 130.329 221.865 130.302C221.859 130.329 221.853 130.357 221.846 130.385ZM220.268 129.05C219.968 129.216 219.651 129.467 219.318 129.8H219.319C219.652 129.467 219.968 129.216 220.268 129.05ZM253.584 188.898C253.553 188.979 253.526 189.053 253.506 189.123C253.526 189.053 253.553 188.979 253.584 188.898ZM219.231 169.703C219.033 169.963 218.838 170.225 218.644 170.486C218.838 170.225 219.033 169.963 219.231 169.703ZM228.33 159.333C228.079 159.583 227.83 159.832 227.583 160.083C227.83 159.832 228.079 159.583 228.33 159.333ZM221.754 130.686C221.769 130.647 221.781 130.609 221.793 130.57C221.781 130.609 221.769 130.647 221.754 130.686Z" fill="#F73E6A"/>
<path d="M182.307 133.6C184.344 133.6 186.208 134.447 187.362 136.271C188.478 137.711 188.906 139.444 188.906 141.2C188.906 144.434 188.013 147.642 186.363 150.792L186.35 150.819L186.335 150.846C184.885 153.482 183.57 155.981 182.39 158.342C179.769 163.715 177.689 168.465 176.136 172.6C174.817 176.448 174.106 181.417 174.106 187.6C174.106 191.581 174.502 194.045 175.033 195.342C175.336 195.924 175.595 196.181 175.736 196.285C175.845 196.365 175.935 196.4 176.106 196.4C177.156 196.4 178.921 195.77 181.519 193.552C184.105 191.207 186.823 188.062 189.66 184.063C192.487 180.081 194.998 175.767 197.193 171.119L197.196 171.112L197.2 171.105C197.963 169.512 198.708 168.161 199.443 167.167C199.808 166.673 200.251 166.157 200.779 165.737C201.279 165.341 202.149 164.8 203.307 164.8L203.556 164.809C204.141 164.848 204.755 165.028 205.32 165.404C205.947 165.822 206.345 166.369 206.59 166.858C207.037 167.752 207.106 168.714 207.106 169.4C207.106 171.498 206.299 174.082 205.091 176.913L205.092 176.914C203.974 179.71 202.586 182.553 200.937 185.443C199.441 188.293 197.951 190.658 196.456 192.464C194.039 195.587 191.266 198.358 188.141 200.773C184.744 203.398 180.978 204.8 176.906 204.8C174.267 204.8 171.825 204.295 169.73 203.111C167.603 201.909 166.023 200.111 164.982 197.857C163.17 193.93 162.307 189.487 162.307 184.6C162.307 179.861 162.794 174.94 163.759 169.843L163.771 169.782C164.85 164.656 166.001 159.982 167.226 155.764L167.237 155.721L167.251 155.679C168.585 151.544 169.607 148.54 170.307 146.723L170.349 146.612L170.399 146.506C171.903 143.362 173.435 140.635 175.001 138.351C176.697 135.738 179.086 133.6 182.307 133.6ZM176.906 201.8C177.103 201.8 177.3 201.795 177.495 201.787C177.3 201.795 177.103 201.8 176.906 201.8ZM177.848 201.766C177.93 201.76 178.013 201.757 178.095 201.75C178.013 201.757 177.93 201.76 177.848 201.766ZM178.442 201.715C178.523 201.706 178.603 201.698 178.684 201.688C178.603 201.698 178.523 201.706 178.442 201.715ZM178.999 201.644C179.095 201.629 179.19 201.616 179.285 201.6C179.19 201.616 179.095 201.629 178.999 201.644ZM179.582 201.545C179.68 201.526 179.778 201.507 179.875 201.486C179.778 201.507 179.68 201.526 179.582 201.545ZM180.144 201.426C180.249 201.401 180.354 201.376 180.459 201.349C180.354 201.376 180.249 201.401 180.144 201.426ZM180.748 201.271C180.841 201.244 180.933 201.217 181.025 201.189C180.933 201.217 180.841 201.244 180.748 201.271ZM181.317 201.098C181.415 201.066 181.512 201.033 181.608 200.999C181.512 201.033 181.415 201.066 181.317 201.098ZM181.882 200.9C181.982 200.863 182.082 200.825 182.182 200.785C182.082 200.825 181.982 200.863 181.882 200.9ZM182.444 200.679C182.554 200.633 182.663 200.585 182.771 200.536C182.663 200.585 182.554 200.633 182.444 200.679ZM182.996 200.435C183.107 200.383 183.217 200.329 183.327 200.274C183.217 200.329 183.107 200.383 182.996 200.435ZM183.568 200.154C183.674 200.1 183.779 200.043 183.885 199.985C183.779 200.043 183.674 200.1 183.568 200.154ZM184.115 199.859C184.229 199.795 184.343 199.728 184.456 199.66C184.343 199.728 184.229 199.795 184.115 199.859ZM184.67 199.532C184.791 199.458 184.912 199.38 185.032 199.302C184.912 199.38 184.791 199.458 184.67 199.532ZM175.241 199.302C175.344 199.326 175.449 199.344 175.555 199.359C175.449 199.344 175.344 199.326 175.241 199.302ZM189.466 195.709C188.459 196.653 187.406 197.55 186.306 198.4C185.945 198.679 185.58 198.94 185.213 199.185C185.394 199.064 185.575 198.94 185.754 198.812L186.307 198.4C187.59 197.409 188.809 196.353 189.965 195.233L189.466 195.709ZM172.485 196.939C172.851 197.595 173.263 198.12 173.723 198.514L173.497 198.306C173.423 198.233 173.351 198.156 173.279 198.076C173.137 197.916 173 197.74 172.867 197.551C172.669 197.266 172.482 196.95 172.307 196.6L172.485 196.939ZM182.984 196.235C182.64 196.517 182.3 196.78 181.966 197.023C182.3 196.78 182.64 196.517 182.984 196.235ZM167.16 195.315C167.331 195.751 167.512 196.179 167.706 196.6C167.512 196.179 167.331 195.751 167.16 195.315ZM171.933 195.545C172.006 195.793 172.082 196.027 172.165 196.247C172.082 196.027 172.006 195.793 171.933 195.545ZM166.915 194.66C166.953 194.765 166.992 194.869 167.031 194.973C166.992 194.869 166.953 194.765 166.915 194.66ZM166.685 193.985C166.718 194.088 166.754 194.189 166.788 194.291C166.754 194.189 166.718 194.088 166.685 193.985ZM166.475 193.308C166.51 193.428 166.548 193.548 166.585 193.668C166.548 193.548 166.51 193.428 166.475 193.308ZM166.274 192.586C166.306 192.705 166.338 192.823 166.371 192.94C166.338 192.823 166.306 192.705 166.274 192.586ZM166.099 191.88C166.134 192.029 166.17 192.177 166.207 192.324C166.17 192.177 166.134 192.029 166.099 191.88ZM165.937 191.143C165.966 191.285 165.996 191.428 166.027 191.569C165.996 191.428 165.966 191.285 165.937 191.143ZM165.799 190.422C165.826 190.571 165.852 190.72 165.881 190.868C165.852 190.72 165.826 190.571 165.799 190.422ZM171.114 186.412C171.109 186.804 171.106 187.2 171.106 187.6C171.106 188.736 171.138 189.788 171.198 190.753C171.151 190.007 171.122 189.21 171.111 188.361L171.106 187.6C171.106 187.2 171.109 186.804 171.114 186.412ZM195.634 188.547C195.202 189.187 194.777 189.77 194.357 190.293C194.609 189.979 194.863 189.643 195.119 189.287C195.29 189.05 195.462 188.803 195.635 188.547H195.634ZM165.677 189.682C165.698 189.821 165.719 189.96 165.742 190.098C165.719 189.96 165.698 189.821 165.677 189.682ZM165.549 188.75C165.573 188.953 165.599 189.154 165.627 189.354C165.599 189.154 165.573 188.953 165.549 188.75ZM165.481 188.141C165.498 188.301 165.515 188.46 165.533 188.618C165.515 188.46 165.498 188.301 165.481 188.141ZM165.408 187.312C165.421 187.483 165.434 187.652 165.449 187.82C165.434 187.652 165.421 187.483 165.408 187.312ZM165.343 186.274C165.354 186.531 165.37 186.786 165.387 187.039C165.37 186.786 165.354 186.531 165.343 186.274ZM202.307 175.8C201.24 178.466 199.906 181.2 198.306 184C197.939 184.7 197.577 185.362 197.219 185.987L197.76 185.021C197.941 184.69 198.123 184.35 198.307 184C198.707 183.3 199.09 182.604 199.457 181.912C200.374 180.183 201.186 178.48 201.895 176.803C202.036 176.467 202.173 176.133 202.307 175.8C202.453 175.458 202.589 175.126 202.718 174.805C202.589 175.126 202.453 175.458 202.307 175.8ZM192.94 184.6C192.729 184.909 192.515 185.217 192.3 185.523C192.515 185.217 192.729 184.909 192.94 184.6ZM171.415 180.85C171.346 181.55 171.29 182.267 171.244 183C171.29 182.267 171.346 181.55 171.415 180.85ZM165.353 182.118C165.348 182.233 165.344 182.348 165.341 182.463C165.344 182.348 165.348 182.233 165.353 182.118ZM165.436 180.421C165.428 180.544 165.421 180.668 165.414 180.791C165.421 180.668 165.428 180.544 165.436 180.421ZM165.489 179.604C165.479 179.749 165.47 179.894 165.46 180.039C165.47 179.894 165.479 179.749 165.489 179.604ZM165.556 178.762C165.546 178.882 165.536 179.001 165.526 179.121C165.536 179.001 165.546 178.882 165.556 178.762ZM172.146 175.912C172.019 176.529 171.906 177.162 171.803 177.812C171.957 176.838 172.138 175.9 172.344 175L172.146 175.912ZM165.642 177.812C165.627 177.966 165.611 178.119 165.598 178.271C165.611 178.119 165.627 177.966 165.642 177.812ZM165.709 177.138C165.701 177.21 165.694 177.283 165.687 177.355C165.694 177.283 165.701 177.21 165.709 177.138ZM165.817 176.171C165.802 176.298 165.787 176.425 165.772 176.552C165.787 176.425 165.802 176.298 165.817 176.171ZM172.79 173.25C172.71 173.533 172.633 173.821 172.559 174.112L172.791 173.25C172.871 172.967 172.954 172.687 173.04 172.412L172.79 173.25ZM203.005 174.062C203.028 174 203.051 173.937 203.074 173.875C203.051 173.937 203.028 174 203.005 174.062ZM203.33 173.146C203.344 173.104 203.359 173.062 203.373 173.021C203.359 173.062 203.344 173.104 203.33 173.146ZM203.436 172.828C203.462 172.746 203.487 172.665 203.512 172.585C203.487 172.665 203.462 172.746 203.436 172.828ZM203.568 172.4C203.591 172.323 203.613 172.247 203.635 172.171C203.613 172.247 203.591 172.323 203.568 172.4ZM203.673 172.035C203.7 171.937 203.726 171.841 203.751 171.746C203.726 171.841 203.7 171.937 203.673 172.035ZM203.857 171.305C203.879 171.208 203.901 171.114 203.92 171.021C203.901 171.114 203.879 171.208 203.857 171.305ZM173.931 169.972C173.714 170.524 173.507 171.066 173.307 171.6C173.707 170.533 174.14 169.429 174.606 168.287L173.931 169.972ZM204.099 169.683C204.08 170.062 204.026 170.481 203.936 170.939C204.026 170.481 204.081 170.062 204.1 169.683L204.106 169.4L204.099 169.683ZM203.993 168.425C204.031 168.55 204.059 168.694 204.078 168.856L204.057 168.7C204.04 168.6 204.018 168.508 203.993 168.425ZM203.152 167.817C203.126 167.823 203.1 167.831 203.073 167.84C203.127 167.822 203.179 167.811 203.23 167.805L203.152 167.817ZM167.456 166.966C167.39 167.258 167.324 167.552 167.259 167.848C167.324 167.552 167.39 167.258 167.456 166.966ZM203.307 167.8C203.373 167.8 203.436 167.808 203.494 167.825C203.436 167.808 203.373 167.8 203.307 167.8ZM167.898 165.053C167.807 165.441 167.716 165.833 167.625 166.228C167.716 165.833 167.807 165.441 167.898 165.053ZM168.287 163.437C168.196 163.81 168.104 164.186 168.014 164.565C168.104 164.186 168.196 163.81 168.287 163.437ZM168.688 161.828C168.598 162.181 168.509 162.538 168.42 162.896C168.509 162.538 168.598 162.181 168.688 161.828ZM169.083 160.304C169.003 160.607 168.923 160.911 168.844 161.219C168.923 160.911 169.003 160.607 169.083 160.304ZM169.659 158.172C169.52 158.671 169.382 159.176 169.245 159.688C169.382 159.176 169.52 158.671 169.659 158.172ZM171.771 151.556C171.634 151.957 171.494 152.379 171.346 152.823C171.494 152.379 171.634 151.957 171.771 151.556ZM172.445 149.608C172.315 149.975 172.178 150.37 172.033 150.792C172.178 150.37 172.315 149.975 172.445 149.608ZM184.149 148.506C184.168 148.466 184.187 148.426 184.206 148.386C184.187 148.426 184.168 148.466 184.149 148.506ZM184.338 148.093C184.365 148.031 184.393 147.969 184.42 147.907C184.393 147.969 184.365 148.031 184.338 148.093ZM184.608 147.46C184.617 147.439 184.625 147.417 184.634 147.396C184.625 147.417 184.617 147.439 184.608 147.46ZM184.729 147.154C184.768 147.053 184.806 146.952 184.844 146.851C184.806 146.952 184.768 147.053 184.729 147.154ZM184.909 146.672C184.946 146.569 184.982 146.467 185.017 146.364C184.982 146.467 184.946 146.569 184.909 146.672ZM185.091 146.136C185.119 146.05 185.146 145.964 185.173 145.878C185.146 145.964 185.119 146.05 185.091 146.136ZM185.246 145.637C185.27 145.555 185.293 145.473 185.315 145.391C185.293 145.473 185.27 145.555 185.246 145.637ZM185.393 145.104C185.409 145.041 185.425 144.978 185.44 144.915C185.425 144.978 185.409 145.041 185.393 145.104ZM185.505 144.645C185.526 144.551 185.547 144.458 185.566 144.365C185.547 144.458 185.526 144.551 185.505 144.645ZM185.611 144.148C185.627 144.068 185.642 143.987 185.656 143.906C185.642 143.987 185.627 144.068 185.611 144.148ZM185.707 143.62C185.719 143.547 185.728 143.473 185.739 143.399C185.728 143.473 185.719 143.547 185.707 143.62ZM185.773 143.169C185.785 143.08 185.795 142.99 185.806 142.901C185.795 142.99 185.785 143.08 185.773 143.169ZM185.832 142.663C185.84 142.579 185.848 142.495 185.854 142.411C185.848 142.495 185.84 142.579 185.832 142.663ZM177.783 139.588C177.69 139.721 177.598 139.858 177.506 140C177.598 139.858 177.69 139.721 177.783 139.588ZM184.906 138C184.874 137.944 184.84 137.89 184.806 137.837C184.84 137.89 184.874 137.944 184.906 138ZM184.762 137.774C184.74 137.743 184.719 137.711 184.696 137.681C184.719 137.711 184.74 137.743 184.762 137.774ZM184.649 137.621C184.627 137.593 184.605 137.565 184.582 137.538C184.605 137.565 184.627 137.593 184.649 137.621ZM184.533 137.484C184.506 137.454 184.479 137.425 184.451 137.396C184.479 137.425 184.506 137.454 184.533 137.484ZM184.412 137.358C184.385 137.332 184.357 137.306 184.328 137.28C184.357 137.306 184.385 137.332 184.412 137.358ZM184.259 137.221C184.239 137.205 184.219 137.188 184.199 137.173C184.219 137.188 184.239 137.205 184.259 137.221ZM184.121 137.116C184.095 137.097 184.068 137.078 184.041 137.061C184.068 137.078 184.095 137.097 184.121 137.116ZM183.981 137.023C183.953 137.006 183.923 136.988 183.894 136.972C183.923 136.988 183.953 137.006 183.981 137.023ZM183.817 136.931C183.789 136.916 183.76 136.902 183.731 136.889C183.76 136.902 183.789 136.916 183.817 136.931ZM183.662 136.856C183.63 136.842 183.597 136.829 183.564 136.816C183.597 136.829 183.63 136.842 183.662 136.856ZM183.481 136.785C183.46 136.778 183.438 136.771 183.416 136.764C183.438 136.771 183.46 136.778 183.481 136.785ZM183.299 136.727C183.276 136.72 183.253 136.715 183.229 136.709C183.253 136.715 183.276 136.72 183.299 136.727ZM183.123 136.684C183.09 136.676 183.056 136.67 183.021 136.664C183.056 136.67 183.09 136.676 183.123 136.684ZM182.832 136.634C182.733 136.621 182.632 136.611 182.527 136.605L182.74 136.622C182.771 136.625 182.802 136.63 182.832 136.634ZM190.706 113.4C192.553 113.4 194.818 113.827 196.22 115.682C197.388 116.955 197.906 118.541 197.906 120.2C197.906 123.068 196.672 125.879 194.738 128.557L194.714 128.59L194.689 128.622C192.753 131.155 190.244 133.2 187.106 133.2C185.984 133.2 184.851 132.911 183.849 132.217C182.864 131.535 182.2 130.598 181.765 129.618L181.688 129.444L181.633 129.262C181.242 127.958 180.906 126.63 180.906 125.6C180.906 122.867 181.685 120.307 183.183 117.978L183.196 117.957L183.21 117.936C184.792 115.563 186.964 113.651 189.857 113.41L189.981 113.4H190.706ZM187.106 130.2C187.213 130.2 187.319 130.195 187.426 130.187C187.319 130.195 187.213 130.2 187.106 130.2ZM187.469 130.182C187.56 130.173 187.652 130.162 187.743 130.147C187.652 130.162 187.56 130.173 187.469 130.182ZM186.469 130.137C186.531 130.15 186.595 130.161 186.66 130.17C186.595 130.161 186.531 130.15 186.469 130.137ZM187.828 130.131C187.904 130.117 187.98 130.102 188.057 130.084C187.98 130.102 187.904 130.117 187.828 130.131ZM186.291 130.093C186.336 130.105 186.381 130.117 186.427 130.127C186.381 130.117 186.336 130.105 186.291 130.093ZM186.091 130.028C186.131 130.043 186.171 130.055 186.212 130.068C186.171 130.055 186.131 130.043 186.091 130.028ZM188.156 130.058C188.23 130.038 188.304 130.019 188.378 129.995C188.304 130.019 188.23 130.038 188.156 130.058ZM185.925 129.959C185.963 129.976 186.001 129.992 186.04 130.008C186.001 129.992 185.963 129.976 185.925 129.959ZM188.489 129.956C188.554 129.934 188.618 129.911 188.683 129.886C188.618 129.911 188.554 129.934 188.489 129.956ZM185.747 129.868C185.779 129.886 185.811 129.903 185.844 129.919C185.811 129.903 185.779 129.886 185.747 129.868ZM188.812 129.831C188.88 129.802 188.947 129.772 189.015 129.739C188.947 129.772 188.88 129.802 188.812 129.831ZM185.591 129.772C185.62 129.792 185.65 129.81 185.68 129.828C185.65 129.81 185.62 129.792 185.591 129.772ZM185.43 129.655C185.459 129.678 185.488 129.7 185.518 129.722C185.488 129.7 185.459 129.678 185.43 129.655ZM189.117 129.688C189.189 129.652 189.261 129.614 189.333 129.574C189.261 129.614 189.189 129.652 189.117 129.688ZM185.275 129.522C185.307 129.552 185.339 129.581 185.372 129.608C185.339 129.581 185.307 129.552 185.275 129.522ZM189.436 129.515C189.508 129.472 189.581 129.428 189.654 129.381C189.581 129.428 189.508 129.472 189.436 129.515ZM185.146 129.394C185.172 129.421 185.197 129.448 185.224 129.474C185.197 129.448 185.172 129.421 185.146 129.394ZM184.987 129.21C185.019 129.25 185.051 129.289 185.084 129.326C185.051 129.289 185.019 129.25 184.987 129.21ZM189.751 129.317C189.824 129.268 189.898 129.218 189.972 129.165C189.898 129.218 189.824 129.268 189.751 129.317ZM184.854 129.029C184.725 128.842 184.609 128.633 184.506 128.4C184.609 128.633 184.725 128.842 184.854 129.029ZM190.073 129.091C190.142 129.039 190.21 128.986 190.279 128.931C190.21 128.986 190.142 129.039 190.073 129.091ZM190.396 128.837C190.479 128.768 190.563 128.696 190.646 128.622C190.563 128.696 190.479 128.768 190.396 128.837ZM190.696 128.577C190.789 128.494 190.88 128.407 190.973 128.317C190.88 128.407 190.789 128.494 190.696 128.577ZM191.015 128.276C191.108 128.185 191.202 128.09 191.295 127.991C191.202 128.09 191.108 128.185 191.015 128.276ZM192.611 126.364C192.512 126.509 192.411 126.654 192.306 126.8C191.983 127.221 191.66 127.603 191.338 127.946C191.552 127.718 191.767 127.474 191.981 127.212L192.307 126.8C192.412 126.654 192.513 126.508 192.611 126.364ZM184.244 127.475L184.243 127.476L184.244 127.475ZM193.712 124.538C193.762 124.441 193.811 124.344 193.858 124.247C193.811 124.344 193.762 124.441 193.712 124.538ZM193.938 124.081C193.979 123.994 194.018 123.907 194.057 123.82C194.018 123.907 193.979 123.994 193.938 124.081ZM194.105 123.709C194.151 123.604 194.195 123.5 194.236 123.396C194.195 123.5 194.151 123.604 194.105 123.709ZM194.27 123.312C194.312 123.203 194.352 123.094 194.391 122.985C194.352 123.094 194.312 123.203 194.27 123.312ZM194.419 122.905C194.456 122.799 194.489 122.693 194.521 122.588C194.489 122.693 194.456 122.799 194.419 122.905ZM194.55 122.5C194.578 122.404 194.604 122.309 194.629 122.214C194.604 122.309 194.578 122.404 194.55 122.5ZM194.659 122.103C194.685 121.999 194.709 121.895 194.73 121.792C194.709 121.895 194.685 121.999 194.659 122.103ZM194.746 121.721C194.769 121.609 194.789 121.499 194.807 121.389C194.789 121.499 194.769 121.609 194.746 121.721ZM194.865 120.951C194.878 120.826 194.89 120.701 194.896 120.577L194.906 120.2C194.906 120.134 194.905 120.068 194.902 120.003C194.905 120.068 194.906 120.134 194.906 120.2C194.906 120.448 194.892 120.698 194.865 120.951ZM186.731 118.274C186.469 118.562 186.211 118.882 185.958 119.235C186.211 118.882 186.469 118.562 186.731 118.274ZM193.688 117.326C193.768 117.412 193.841 117.502 193.906 117.6C193.948 117.641 193.988 117.683 194.027 117.727C193.988 117.683 193.948 117.641 193.906 117.6C193.841 117.502 193.768 117.412 193.688 117.326ZM193.643 117.281C193.615 117.254 193.587 117.226 193.558 117.2C193.587 117.226 193.615 117.254 193.643 117.281ZM193.513 117.162C193.483 117.137 193.453 117.112 193.422 117.088C193.453 117.112 193.483 117.137 193.513 117.162ZM193.349 117.035C193.326 117.019 193.304 117.003 193.281 116.988C193.304 117.003 193.326 117.019 193.349 117.035ZM193.194 116.935C193.165 116.917 193.135 116.899 193.104 116.882C193.135 116.899 193.165 116.917 193.194 116.935ZM193.039 116.848C193.006 116.831 192.973 116.815 192.939 116.799C192.973 116.815 193.006 116.831 193.039 116.848ZM192.853 116.76C192.816 116.744 192.778 116.729 192.74 116.714C192.778 116.729 192.816 116.744 192.853 116.76ZM192.673 116.688C192.63 116.673 192.587 116.659 192.543 116.645C192.587 116.659 192.63 116.673 192.673 116.688ZM192.466 116.62C192.428 116.609 192.39 116.598 192.352 116.588C192.39 116.598 192.428 116.609 192.466 116.62ZM192.235 116.558C192.197 116.548 192.158 116.541 192.118 116.532C192.158 116.541 192.197 116.548 192.235 116.558ZM192.026 116.513C191.982 116.504 191.937 116.497 191.892 116.489C191.937 116.497 191.982 116.504 192.026 116.513ZM191.779 116.471C191.712 116.461 191.644 116.453 191.574 116.445C191.644 116.453 191.712 116.461 191.779 116.471ZM191.281 116.419C191.371 116.425 191.46 116.432 191.546 116.441C191.372 116.423 191.19 116.41 191 116.404L191.281 116.419ZM184.498 194.87C184.646 194.727 184.795 194.581 184.943 194.433C184.795 194.581 184.646 194.727 184.498 194.87ZM185.021 194.356C185.155 194.222 185.29 194.085 185.425 193.946C185.29 194.085 185.155 194.222 185.021 194.356ZM190.242 188.328C190.333 188.209 190.425 188.09 190.516 187.97C190.425 188.09 190.333 188.209 190.242 188.328ZM165.315 185.443C165.322 185.722 165.33 185.999 165.343 186.274C165.33 185.999 165.322 185.722 165.315 185.443ZM203.775 171.65C203.8 171.553 203.823 171.457 203.845 171.362C203.823 171.457 203.8 171.553 203.775 171.65ZM184.854 129.029C184.889 129.081 184.925 129.131 184.963 129.18C184.925 129.131 184.889 129.081 184.854 129.029ZM193.463 125C193.53 124.881 193.594 124.762 193.656 124.645C193.594 124.762 193.53 124.881 193.463 125ZM194.816 121.33C194.835 121.209 194.85 121.089 194.863 120.969C194.85 121.089 194.835 121.209 194.816 121.33Z" fill="#F73E6A"/>
<path d="M153.6 49.7998C159.378 49.7998 164.24 51.3145 167.429 54.9932H167.43C170.46 58.3598 171.8 62.8209 171.8 68C171.8 73.4025 170.49 79.4374 168.009 86.0537C165.523 92.6814 162.023 99.5333 157.533 106.607C153.177 113.549 148.081 120.339 142.255 126.979L142.245 126.99L142.234 127.002C136.383 133.533 129.989 139.52 123.052 144.961L123.037 144.972L123.022 144.983C116.034 150.328 108.745 154.594 101.157 157.768C93.4883 160.975 85.763 162.6 78 162.6C76.4423 162.6 74.8847 162.529 73.3281 162.388L73.1953 162.376L73.0635 162.352C72.3959 162.23 71.7387 162.082 71.0918 161.911C68.8529 167.282 66.7631 172.652 64.8213 178.021C63.3429 182.108 62.0667 186.315 60.9932 190.643C69.8513 185.938 79.2958 182.417 89.3184 180.078C101.536 177.227 113.764 175.8 126 175.8C129.561 175.8 133.519 176.465 137.837 177.719C142.279 178.876 146.17 180.769 149.448 183.438H149.449C153.292 186.445 155.2 190.609 155.2 195.6C155.2 197.314 155.118 198.805 154.892 199.938C154.783 200.479 154.597 201.186 154.21 201.831C153.814 202.491 152.858 203.6 151.2 203.6C150.101 203.6 149.273 203.105 148.775 202.697C148.275 202.288 147.892 201.797 147.604 201.364C147.024 200.495 146.498 199.358 146.004 198.087C144.386 193.926 142.046 191.746 139.138 190.873L139.095 190.86L139.052 190.846C135.397 189.627 131.321 189 126.8 189C118.756 189 111.898 189.397 106.205 190.173L106.176 190.177L106.146 190.18C100.573 190.828 95.4186 191.86 90.6758 193.269C85.9745 194.705 81.0624 196.473 75.9385 198.575C71.104 200.559 65.4687 202.826 59.0352 205.38C57.841 211.045 55.7365 215.603 52.418 218.62L52.417 218.619C49.3977 221.481 46.105 223.4 42.5996 223.4C40.5031 223.4 38.569 222.724 37.0312 221.265C35.2436 219.842 34.4004 217.831 34.4004 215.6C34.4005 212.815 35.7465 210.009 37.7236 207.306C39.6146 204.542 42.5997 201.69 46.4912 198.733C46.9456 197.453 47.26 196.299 47.4482 195.264L47.4717 195.136L47.5059 195.011C47.8718 193.669 48.1826 192.182 48.4346 190.544L48.4365 190.536L48.4375 190.528C49.4088 184.423 51.1387 178.275 53.6143 172.086C55.6095 166.988 57.6085 162.159 59.6084 157.6C57.3964 156.3 55.3972 154.26 53.5781 151.771L53.5332 151.708C50.8188 147.787 49.4004 143.532 49.4004 139C49.4004 137.762 49.6504 135.987 50.0518 133.847C50.2746 132.595 50.6167 131.344 51.2139 130.329C51.8414 129.262 53.0627 128 55 128L55.3008 128.009C56.7945 128.099 58.1155 128.861 58.9229 130.206C59.6375 131.397 59.7998 132.798 59.7998 134V138.2C59.7998 140.403 60.424 142.695 61.8047 145.111C62.4554 146.25 63.1446 147.19 63.8613 147.959C65.8575 143.766 68.2168 139.05 70.9385 133.816C74.4336 126.962 78.3931 119.782 82.8154 112.277C87.2633 104.596 92.1144 97.1182 97.3682 89.8438C102.648 82.5332 108.209 75.8845 114.055 69.9033L114.066 69.8906L114.079 69.8789C120.113 63.8445 126.401 58.997 132.948 55.375C139.615 51.6868 146.511 49.7999 153.6 49.7998ZM41.8213 220.353C41.9864 220.373 42.1553 220.387 42.3281 220.395L42.0625 220.378C41.9812 220.371 41.9008 220.362 41.8213 220.353ZM41.5762 220.316C41.6178 220.323 41.66 220.329 41.7021 220.335C41.66 220.329 41.6178 220.323 41.5762 220.316ZM41.3496 220.272C41.3752 220.278 41.401 220.283 41.4268 220.288C41.401 220.283 41.3752 220.278 41.3496 220.272ZM41.1084 220.215C41.1346 220.222 41.1611 220.228 41.1875 220.234C41.1611 220.228 41.1346 220.222 41.1084 220.215ZM40.8613 220.142C40.9069 220.156 40.9528 220.17 40.999 220.184C40.9528 220.17 40.9069 220.156 40.8613 220.142ZM40.6533 220.069C40.691 220.083 40.7293 220.096 40.7676 220.109C40.7293 220.096 40.691 220.083 40.6533 220.069ZM40.4307 219.979C40.4682 219.995 40.5059 220.011 40.5439 220.026C40.5059 220.011 40.4682 219.995 40.4307 219.979ZM40.2285 219.886C40.2618 219.902 40.2954 219.918 40.3291 219.934C40.2954 219.918 40.2618 219.902 40.2285 219.886ZM45.8643 219.635C45.7033 219.708 45.5432 219.775 45.3838 219.838L45.8652 219.635C46.026 219.562 46.1873 219.484 46.3496 219.4L45.8643 219.635ZM40.0068 219.768C40.0441 219.789 40.0812 219.81 40.1191 219.83C40.0812 219.81 40.0441 219.789 40.0068 219.768ZM39.8037 219.646C39.8448 219.672 39.8858 219.698 39.9277 219.723C39.8858 219.698 39.8448 219.672 39.8037 219.646ZM39.6084 219.514C39.6473 219.541 39.6859 219.569 39.7256 219.596C39.6859 219.569 39.6473 219.541 39.6084 219.514ZM39.4209 219.373C39.4605 219.404 39.4996 219.436 39.54 219.466C39.4996 219.436 39.4605 219.404 39.4209 219.373ZM39.293 219.269C39.3109 219.284 39.3285 219.299 39.3467 219.314C39.3285 219.299 39.3109 219.284 39.293 219.269ZM61.5254 201.163C59.8754 201.821 58.167 202.5 56.4004 203.2C55.3337 209.333 53.3337 213.734 50.4004 216.4C49.1754 217.567 47.9883 218.479 46.8398 219.135L47.335 218.838C48.3287 218.213 49.3505 217.4 50.4004 216.4C50.7671 216.067 51.1195 215.707 51.457 215.319C51.6257 215.126 51.7907 214.925 51.9521 214.718C52.1943 214.407 52.4285 214.081 52.6543 213.739C52.8048 213.512 52.9515 213.277 53.0947 213.036C53.3096 212.674 53.5164 212.297 53.7148 211.905C53.8471 211.644 53.9756 211.376 54.1006 211.101C54.2881 210.688 54.4676 210.26 54.6387 209.817C54.7527 209.522 54.863 209.22 54.9697 208.911C55.1299 208.448 55.282 207.969 55.4258 207.476C55.7133 206.488 55.9676 205.439 56.1895 204.33C56.2634 203.96 56.3337 203.584 56.4004 203.2C58.167 202.5 59.8755 201.821 61.5254 201.163ZM151.313 200.581C151.277 200.593 151.239 200.6 151.2 200.6C151.239 200.6 151.277 200.592 151.313 200.581ZM151.357 200.564C151.362 200.563 151.366 200.561 151.37 200.559C151.366 200.561 151.362 200.563 151.357 200.564ZM151.397 200.544C151.408 200.538 151.419 200.532 151.43 200.524C151.419 200.532 151.408 200.538 151.397 200.544ZM151.449 200.509C151.459 200.501 151.469 200.493 151.479 200.484C151.469 200.493 151.459 200.501 151.449 200.509ZM150.818 200.478C150.836 200.488 150.855 200.496 150.872 200.506C150.855 200.496 150.836 200.488 150.818 200.478ZM151.504 200.46C151.511 200.453 151.518 200.446 151.525 200.438C151.518 200.446 151.511 200.453 151.504 200.46ZM150.687 200.383C150.711 200.402 150.736 200.42 150.76 200.437C150.736 200.42 150.711 200.402 150.687 200.383ZM151.575 200.375C151.592 200.352 151.61 200.328 151.627 200.302C151.61 200.328 151.592 200.352 151.575 200.375ZM150.555 200.265C150.577 200.286 150.599 200.306 150.62 200.325C150.599 200.306 150.577 200.286 150.555 200.265ZM151.666 200.23C151.681 200.202 151.697 200.172 151.712 200.141C151.697 200.172 151.681 200.202 151.666 200.23ZM150.419 200.121C150.441 200.146 150.464 200.17 150.485 200.193C150.464 200.17 150.441 200.146 150.419 200.121ZM151.756 200.036C151.768 200.005 151.78 199.974 151.792 199.94C151.78 199.974 151.768 200.005 151.756 200.036ZM150.275 199.946C150.299 199.977 150.323 200.006 150.346 200.034C150.323 200.006 150.299 199.977 150.275 199.946ZM150.133 199.748C150.157 199.783 150.181 199.817 150.205 199.851C150.181 199.817 150.157 199.783 150.133 199.748ZM151.828 199.833C151.843 199.787 151.857 199.738 151.87 199.688C151.857 199.738 151.843 199.787 151.828 199.833ZM149.974 199.501C150.003 199.548 150.031 199.594 150.06 199.638C150.031 199.594 150.003 199.548 149.974 199.501ZM151.898 199.577C151.911 199.527 151.922 199.474 151.934 199.42C151.922 199.474 151.911 199.527 151.898 199.577ZM149.812 199.226C149.849 199.291 149.885 199.354 149.921 199.414C149.885 199.354 149.849 199.291 149.812 199.226ZM151.963 199.272C151.972 199.223 151.982 199.173 151.99 199.121C151.982 199.173 151.972 199.223 151.963 199.272ZM149.677 198.976C149.712 199.042 149.746 199.107 149.78 199.169C149.746 199.107 149.712 199.042 149.677 198.976ZM152.025 198.898C152.032 198.856 152.037 198.812 152.043 198.768C152.037 198.812 152.032 198.856 152.025 198.898ZM149.54 198.706C149.561 198.748 149.581 198.79 149.602 198.831C149.581 198.79 149.561 198.748 149.54 198.706ZM152.067 198.575C152.077 198.493 152.084 198.408 152.093 198.32C152.084 198.408 152.077 198.493 152.067 198.575ZM149.327 198.259C149.368 198.348 149.408 198.435 149.448 198.52C149.408 198.435 149.368 198.348 149.327 198.259ZM149.138 197.831C149.191 197.955 149.244 198.075 149.296 198.19C149.244 198.075 149.191 197.955 149.138 197.831ZM152.109 198.154C152.118 198.054 152.125 197.95 152.133 197.844C152.125 197.95 152.118 198.054 152.109 198.154ZM152.14 197.751C152.146 197.646 152.152 197.538 152.157 197.427C152.152 197.538 152.146 197.646 152.14 197.751ZM58.9307 195.216C58.1488 195.667 57.3716 196.128 56.5996 196.6C57.3716 196.128 58.1489 195.667 58.9307 195.216ZM152.16 194.46C152.178 194.708 152.189 194.96 152.195 195.215L152.183 194.835C152.177 194.709 152.169 194.584 152.16 194.46ZM60.4492 194.354C60.2097 194.487 59.971 194.622 59.7324 194.757C59.971 194.622 60.2097 194.487 60.4492 194.354ZM61.3984 193.83C61.1918 193.943 60.9862 194.057 60.7803 194.171C60.9862 194.057 61.1918 193.943 61.3984 193.83ZM62.4189 193.282C62.2092 193.394 62.0001 193.506 61.791 193.619C62.0001 193.506 62.2092 193.394 62.4189 193.282ZM63.3789 192.779C63.1391 192.904 62.9 193.029 62.6611 193.155C62.9 193.029 63.1391 192.904 63.3789 192.779ZM64.3867 192.264C64.1722 192.372 63.9579 192.481 63.7441 192.591C63.9579 192.481 64.1722 192.372 64.3867 192.264ZM65.3545 191.779C65.1678 191.871 64.9821 191.965 64.7959 192.059C64.9821 191.965 65.1678 191.871 65.3545 191.779ZM66.3232 191.308C66.1338 191.399 65.9448 191.491 65.7559 191.583C65.9447 191.491 66.1338 191.399 66.3232 191.308ZM67.3857 190.803C67.2102 190.885 67.0354 190.969 66.8604 191.052C67.0354 190.969 67.2102 190.885 67.3857 190.803ZM68.4629 190.306C68.1925 190.429 67.9227 190.553 67.6533 190.679C67.9227 190.553 68.1925 190.429 68.4629 190.306ZM69.3672 189.897C69.1353 190.001 68.904 190.105 68.6729 190.21C68.904 190.105 69.1353 190.001 69.3672 189.897ZM70.3955 189.447C70.1973 189.533 69.9994 189.619 69.8018 189.706C69.9994 189.619 70.1973 189.533 70.3955 189.447ZM71.374 189.029C71.1908 189.107 71.0079 189.184 70.8252 189.263C71.0079 189.184 71.1908 189.107 71.374 189.029ZM72.3223 188.634C72.1958 188.686 72.0696 188.739 71.9434 188.791C72.0696 188.739 72.1958 188.686 72.3223 188.634ZM73.4609 188.174C73.2858 188.244 73.1112 188.314 72.9365 188.385C73.1112 188.314 73.2858 188.244 73.4609 188.174ZM74.4053 187.803C74.2371 187.868 74.0692 187.934 73.9014 188C74.0692 187.934 74.2371 187.868 74.4053 187.803ZM75.3545 187.439C75.26 187.475 75.1656 187.511 75.0713 187.547C75.1656 187.511 75.26 187.475 75.3545 187.439ZM76.4619 187.028C76.3309 187.076 76.2001 187.125 76.0693 187.173C76.2001 187.125 76.3309 187.076 76.4619 187.028ZM77.4473 186.674C77.3466 186.71 77.246 186.745 77.1455 186.781C77.246 186.745 77.3466 186.71 77.4473 186.674ZM78.6865 186.242C78.5071 186.304 78.3275 186.365 78.1484 186.427C78.3275 186.364 78.5071 186.304 78.6865 186.242ZM79.6943 185.901C79.5034 185.965 79.3126 186.028 79.1221 186.093C79.3126 186.028 79.5034 185.965 79.6943 185.901ZM80.6982 185.574C80.5518 185.621 80.405 185.667 80.2588 185.715C80.405 185.667 80.5518 185.621 80.6982 185.574ZM81.8076 185.223C81.6349 185.276 81.4624 185.33 81.29 185.385C81.4624 185.33 81.6349 185.276 81.8076 185.223ZM145.887 184.521C146.184 184.723 146.475 184.933 146.762 185.147C146.475 184.933 146.184 184.723 145.887 184.521ZM82.9805 184.865C82.7726 184.927 82.5648 184.989 82.3574 185.053C82.5648 184.989 82.7726 184.927 82.9805 184.865ZM84.1592 184.521C83.9082 184.593 83.6574 184.665 83.4072 184.738C83.6574 184.665 83.9082 184.593 84.1592 184.521ZM84.9375 184.299C84.7968 184.338 84.6561 184.377 84.5156 184.417C84.6561 184.377 84.7968 184.338 84.9375 184.299ZM86.0488 183.993C85.9065 184.032 85.7641 184.07 85.6221 184.108C85.7641 184.07 85.9065 184.032 86.0488 183.993ZM87.3867 183.642C87.1511 183.702 86.9156 183.762 86.6807 183.824C86.9156 183.762 87.1511 183.702 87.3867 183.642ZM142.75 182.7C143.192 182.917 143.624 183.143 144.047 183.381C143.624 183.143 143.192 182.917 142.75 182.7ZM139.262 181.271V181.27V181.271ZM134.724 179.988C134.971 180.049 135.221 180.112 135.472 180.178C134.97 180.046 134.475 179.925 133.987 179.812L134.724 179.988ZM131.149 179.25C131.379 179.288 131.61 179.327 131.843 179.369C131.377 179.285 130.919 179.21 130.468 179.145L131.149 179.25ZM127.849 178.863C128.06 178.877 128.273 178.893 128.487 178.912C128.058 178.875 127.636 178.847 127.222 178.828L127.849 178.863ZM62.6992 158.019C62.0992 159.377 61.4994 160.76 60.8994 162.169C61.4994 160.761 62.0992 159.377 62.6992 158.019ZM68.4092 160.55C68.7362 159.767 69.0671 158.983 69.4004 158.2C69.0671 158.983 68.7363 159.767 68.4092 160.55ZM79.1836 159.585C79.2363 159.584 79.2891 159.583 79.3418 159.582C79.2891 159.583 79.2363 159.584 79.1836 159.585ZM81.1572 159.504C81.2301 159.5 81.3031 159.495 81.376 159.49C81.3031 159.495 81.2301 159.5 81.1572 159.504ZM81.7061 159.468C81.8209 159.46 81.9359 159.452 82.0508 159.443C81.9359 159.452 81.8209 159.46 81.7061 159.468ZM82.3877 159.416C82.5072 159.406 82.6266 159.396 82.7461 159.385C82.6266 159.396 82.5072 159.406 82.3877 159.416ZM83.0566 159.355C83.1702 159.345 83.2839 159.334 83.3975 159.322C83.2839 159.334 83.1702 159.345 83.0566 159.355ZM72.5127 159.176V159.175V159.176ZM83.9668 159.26C83.9778 159.259 83.989 159.258 84 159.257C83.989 159.258 83.9778 159.259 83.9668 159.26ZM84.5576 159.189C84.6149 159.182 84.6722 159.175 84.7295 159.168C84.6722 159.175 84.6149 159.182 84.5576 159.189ZM85.1035 159.119C85.2145 159.104 85.3255 159.089 85.4365 159.073C85.3255 159.089 85.2145 159.104 85.1035 159.119ZM85.7656 159.025C85.8932 159.007 86.0208 158.988 86.1484 158.968C86.0208 158.988 85.8932 159.007 85.7656 159.025ZM86.4072 158.927C86.5416 158.905 86.6761 158.884 86.8105 158.861C86.6761 158.884 86.5416 158.905 86.4072 158.927ZM87.1641 158.801C87.2513 158.786 87.3385 158.77 87.4258 158.754C87.3385 158.77 87.2513 158.786 87.1641 158.801ZM87.8252 158.681C87.943 158.659 88.0609 158.637 88.1787 158.614C88.0609 158.637 87.943 158.659 87.8252 158.681ZM88.4688 158.557C88.581 158.534 88.6934 158.512 88.8057 158.489C88.6934 158.512 88.581 158.534 88.4688 158.557ZM89.1631 158.414C89.29 158.387 89.417 158.36 89.5439 158.332C89.417 158.36 89.29 158.387 89.1631 158.414ZM89.7949 158.276C89.9385 158.244 90.082 158.211 90.2256 158.178C90.082 158.211 89.9385 158.244 89.7949 158.276ZM90.5029 158.113C90.6341 158.082 90.7653 158.051 90.8965 158.019C90.7653 158.051 90.6341 158.082 90.5029 158.113ZM91.1631 157.952C91.3422 157.907 91.5211 157.861 91.7002 157.814C91.5211 157.861 91.3422 157.907 91.1631 157.952ZM91.7744 157.796C91.9382 157.753 92.1019 157.709 92.2656 157.665C92.1019 157.709 91.9381 157.753 91.7744 157.796ZM92.5518 157.587C92.6739 157.553 92.7958 157.518 92.918 157.483C92.7958 157.518 92.6739 157.553 92.5518 157.587ZM93.1934 157.405C93.3445 157.362 93.4953 157.316 93.6465 157.271C93.4954 157.316 93.3445 157.362 93.1934 157.405ZM93.877 157.203C93.9936 157.168 94.11 157.132 94.2266 157.096C94.11 157.132 93.9936 157.168 93.877 157.203ZM94.6074 156.978C94.713 156.944 94.8183 156.91 94.9238 156.876C94.8183 156.91 94.713 156.944 94.6074 156.978ZM95.2285 156.777C95.3418 156.74 95.4551 156.703 95.5684 156.665C95.4551 156.703 95.3418 156.74 95.2285 156.777ZM96.5967 156.312C96.767 156.252 96.9371 156.191 97.1074 156.129C96.9371 156.191 96.767 156.252 96.5967 156.312ZM97.2656 156.071C97.4248 156.013 97.584 155.954 97.7432 155.895C97.584 155.954 97.4248 156.013 97.2656 156.071ZM79.2705 155.945C78.9458 155.96 78.6209 155.974 78.2959 155.982C78.6209 155.974 78.9458 155.96 79.2705 155.945ZM62.8877 155.812H62.8867H62.8877ZM73.5156 155.744C73.6718 155.765 73.8334 155.783 74 155.8C73.6667 155.766 73.3542 155.725 73.0625 155.675L73.5156 155.744ZM98.625 155.557C98.4743 155.616 98.3235 155.674 98.1729 155.731C98.5526 155.586 98.9327 155.437 99.3125 155.283L98.625 155.557ZM61.7002 155.325H61.6992H61.7002ZM100 155C100.453 154.811 100.905 154.616 101.355 154.419C100.905 154.616 100.453 154.811 100 155ZM60.2744 154.458H60.2754H60.2744ZM101.592 154.313C101.955 154.153 102.318 153.991 102.68 153.825C102.318 153.991 101.955 154.153 101.592 154.313ZM103.112 153.624C103.419 153.482 103.726 153.339 104.032 153.192C103.726 153.339 103.419 153.482 103.112 153.624ZM94.1221 152.951C93.814 153.062 93.5056 153.169 93.1973 153.273C93.5056 153.169 93.814 153.062 94.1221 152.951ZM104.405 153.011C104.7 152.868 104.996 152.725 105.29 152.578C104.996 152.725 104.7 152.868 104.405 153.011ZM154.8 61C150.588 61 145.94 62.4782 140.807 65.7334C135.722 69.0425 130.441 73.5401 124.97 79.2715C119.457 85.0472 114.065 91.4247 108.795 98.4072C103.645 105.407 98.759 112.536 94.1377 119.798L94.1387 119.799C89.6323 126.956 85.5956 133.772 82.0273 140.248L82.0215 140.26L82.0146 140.271C79.3125 145.074 77.0796 149.285 75.3076 152.907C76.0773 152.971 76.6331 153 77 153C83.6188 153 90.2069 151.566 96.7861 148.656C103.593 145.571 110.099 141.516 116.303 136.476C122.697 131.256 128.569 125.515 133.919 119.252C139.293 112.96 143.932 106.62 147.842 100.233L147.846 100.227L147.851 100.219C151.908 93.6738 155.016 87.5751 157.201 81.9189C159.397 76.1011 160.4 71.4236 160.4 67.7998C160.4 65.1934 159.779 63.5656 158.91 62.5381L158.864 62.4844L158.822 62.4287C158.237 61.6683 157.144 61 154.8 61ZM96.0771 152.209C95.5164 152.434 94.9551 152.648 94.3936 152.853C94.9551 152.648 95.5164 152.434 96.0771 152.209ZM105.867 152.287C106.125 152.157 106.383 152.026 106.64 151.893C106.383 152.026 106.125 152.157 105.867 152.287ZM107.151 151.624C107.411 151.487 107.67 151.349 107.929 151.21C107.67 151.349 107.411 151.487 107.151 151.624ZM108.434 150.936C108.7 150.79 108.967 150.643 109.232 150.494C108.967 150.643 108.7 150.79 108.434 150.936ZM109.754 150.2C110.016 150.051 110.278 149.9 110.54 149.748C110.278 149.9 110.016 150.051 109.754 150.2ZM66.7881 148.789C66.5797 149.225 66.3762 149.656 66.1758 150.08C66.3762 149.656 66.5797 149.225 66.7881 148.789ZM111.028 149.463C111.294 149.307 111.559 149.149 111.823 148.99C111.559 149.149 111.294 149.307 111.028 149.463ZM55.1797 148.729C55.2704 148.881 55.3657 149.03 55.4609 149.181C55.3657 149.03 55.2704 148.881 55.1797 148.729ZM112.352 148.67C112.599 148.519 112.847 148.366 113.094 148.212C112.847 148.366 112.599 148.519 112.352 148.67ZM54.8174 148.102C54.8821 148.218 54.9502 148.333 55.0176 148.449C54.9502 148.333 54.8821 148.218 54.8174 148.102ZM60.0957 148.033C60.0739 148.001 60.053 147.969 60.0312 147.937C60.053 147.969 60.0739 148.001 60.0957 148.033ZM67.6709 146.958C67.4896 147.331 67.3116 147.701 67.1357 148.066C67.3116 147.701 67.4897 147.331 67.6709 146.958ZM113.604 147.894C113.875 147.722 114.145 147.548 114.416 147.373C114.145 147.548 113.875 147.722 113.604 147.894ZM54.4736 147.454C54.5232 147.551 54.5746 147.647 54.626 147.744C54.5746 147.647 54.5232 147.551 54.4736 147.454ZM54.1387 146.768C54.1927 146.884 54.2491 146.999 54.3057 147.115C54.2491 146.999 54.1927 146.884 54.1387 146.768ZM114.881 147.072C115.169 146.884 115.457 146.693 115.744 146.501C115.457 146.693 115.169 146.884 114.881 147.072ZM53.8574 146.132C53.9089 146.254 53.9624 146.375 54.0166 146.496C53.9624 146.375 53.9089 146.254 53.8574 146.132ZM116.136 146.241C116.473 146.014 116.809 145.782 117.146 145.55C116.809 145.782 116.473 146.014 116.136 146.241ZM68.6484 144.961C68.4493 145.365 68.2528 145.765 68.0596 146.16C68.2528 145.765 68.4493 145.365 68.6484 144.961ZM53.5879 145.46C53.6372 145.59 53.6888 145.72 53.7412 145.85C53.6888 145.72 53.6372 145.59 53.5879 145.46ZM117.388 145.383C117.743 145.135 118.098 144.884 118.452 144.631C118.098 144.884 117.743 145.135 117.388 145.383ZM53.3584 144.819C53.3988 144.939 53.4404 145.058 53.4834 145.178C53.4404 145.058 53.3988 144.939 53.3584 144.819ZM53.1436 144.139C53.1791 144.259 53.2148 144.379 53.2529 144.499C53.2148 144.379 53.1791 144.259 53.1436 144.139ZM76.8496 143.412C76.6727 143.738 76.5011 144.063 76.3291 144.383C76.5497 143.972 76.7724 143.556 77.001 143.136L76.8496 143.412ZM69.707 142.826C69.5152 143.21 69.3265 143.59 69.1396 143.967C69.3265 143.59 69.5152 143.21 69.707 142.826ZM52.9551 143.45C52.9864 143.574 53.0178 143.697 53.0518 143.82C53.0178 143.697 52.9864 143.574 52.9551 143.45ZM52.793 142.755C52.822 142.892 52.8515 143.029 52.8838 143.166C52.8515 143.029 52.822 142.892 52.793 142.755ZM52.6582 142.044C52.6829 142.189 52.708 142.335 52.7363 142.479C52.708 142.335 52.6829 142.189 52.6582 142.044ZM70.9316 140.396C70.6353 140.98 70.3433 141.556 70.0576 142.125C70.3433 141.556 70.6353 140.98 70.9316 140.396ZM52.5537 141.35C52.5718 141.489 52.5899 141.629 52.6113 141.768C52.5899 141.629 52.5718 141.489 52.5537 141.35ZM52.4834 140.718C52.4952 140.844 52.5061 140.969 52.5205 141.095C52.5061 140.969 52.4952 140.844 52.4834 140.718ZM123.549 140.718C123.562 140.707 123.574 140.697 123.587 140.687C123.574 140.697 123.562 140.707 123.549 140.718ZM124.604 139.847C124.664 139.796 124.725 139.745 124.786 139.694C124.725 139.745 124.664 139.796 124.604 139.847ZM125.518 139.078C125.685 138.937 125.851 138.795 126.018 138.653C125.851 138.795 125.685 138.937 125.518 139.078ZM83.6465 131.31C82.6592 133.005 81.7015 134.68 80.7725 136.334C81.7015 134.68 82.6592 133.005 83.6465 131.31ZM121.416 136.092C120.388 136.983 119.347 137.861 118.291 138.725C119.347 137.861 120.388 136.983 121.416 136.092ZM126.808 137.974C126.934 137.864 127.06 137.755 127.187 137.645C127.06 137.755 126.934 137.864 126.808 137.974ZM127.903 137.014C128.042 136.891 128.181 136.768 128.319 136.645C128.181 136.768 128.042 136.891 127.903 137.014ZM129.108 135.938C129.243 135.816 129.377 135.694 129.511 135.572C129.377 135.694 129.243 135.816 129.108 135.938ZM130.127 135.007C130.312 134.836 130.498 134.666 130.683 134.494C130.498 134.666 130.312 134.836 130.127 135.007ZM131.33 133.887C131.481 133.744 131.632 133.601 131.783 133.458C131.632 133.601 131.481 133.744 131.33 133.887ZM132.356 132.912C132.58 132.697 132.802 132.481 133.024 132.265C132.802 132.481 132.58 132.697 132.356 132.912ZM133.553 131.75C133.708 131.597 133.863 131.443 134.018 131.289C133.863 131.443 133.708 131.597 133.553 131.75ZM134.648 130.662C134.826 130.484 135.002 130.306 135.178 130.127C135.002 130.306 134.826 130.484 134.648 130.662ZM135.741 129.553C135.961 129.328 136.179 129.102 136.397 128.876C136.179 129.102 135.961 129.328 135.741 129.553ZM136.762 128.498C137.013 128.236 137.262 127.971 137.511 127.707C137.262 127.971 137.013 128.236 136.762 128.498ZM133.875 123.852C133.958 123.759 134.042 123.668 134.125 123.575L134.19 123.501C134.086 123.618 133.98 123.735 133.875 123.852ZM137.163 120.062L137.217 119.999C137.401 119.779 137.584 119.558 137.767 119.338C137.566 119.579 137.365 119.821 137.163 120.062ZM82.916 118.071C82.4827 118.825 82.0534 119.574 81.6299 120.32C82.0533 119.574 82.4827 118.825 82.916 118.071ZM100.662 104.606H100.663H100.662ZM156.229 103.024C156.336 102.849 156.443 102.675 156.549 102.5C156.443 102.675 156.336 102.849 156.229 103.024ZM156.969 101.8C157.095 101.588 157.222 101.377 157.347 101.165C157.222 101.377 157.095 101.588 156.969 101.8ZM157.567 100.785C157.723 100.519 157.878 100.254 158.03 99.9893C157.878 100.254 157.723 100.519 157.567 100.785ZM158.413 99.3184C158.522 99.1263 158.631 98.9348 158.738 98.7432C158.631 98.9348 158.522 99.1263 158.413 99.3184ZM159.1 98.0918C159.191 97.9256 159.283 97.7596 159.373 97.5938C159.283 97.7596 159.191 97.9256 159.1 98.0918ZM159.734 96.9258C159.839 96.7313 159.942 96.5368 160.045 96.3428C159.942 96.5368 159.839 96.7313 159.734 96.9258ZM160.355 95.7529C160.482 95.5104 160.607 95.2682 160.731 95.0264C160.607 95.2682 160.482 95.5104 160.355 95.7529ZM102.703 87.6846C101.726 88.9668 100.759 90.272 99.7998 91.5996C99.1498 92.4996 98.5067 93.4033 97.8691 94.3096C98.5066 93.4034 99.1498 92.4996 99.7998 91.5996C100.759 90.272 101.726 88.9668 102.703 87.6846ZM160.935 94.6279C161.074 94.3527 161.212 94.078 161.349 93.8037C161.212 94.078 161.074 94.3527 160.935 94.6279ZM161.606 93.2842C161.721 93.0495 161.835 92.815 161.947 92.5811C161.835 92.815 161.721 93.0495 161.606 93.2842ZM162.167 92.1211C162.266 91.9132 162.363 91.7054 162.46 91.498C162.363 91.7054 162.266 91.9132 162.167 92.1211ZM162.738 90.8965C162.836 90.6833 162.933 90.4704 163.028 90.2578C162.933 90.4704 162.836 90.6833 162.738 90.8965ZM163.749 88.6172C163.589 88.9921 163.424 89.3674 163.258 89.7441C163.424 89.3674 163.589 88.9921 163.749 88.6172ZM103.653 86.4492C103.435 86.7311 103.218 87.0147 103 87.2988C103.218 87.0147 103.435 86.7311 103.653 86.4492ZM104.673 85.1475C104.47 85.4041 104.268 85.6623 104.066 85.9209C104.268 85.6623 104.47 85.4041 104.673 85.1475ZM165.646 83.7812C165.502 84.1845 165.354 84.5908 165.2 85C165.354 84.5908 165.502 84.1845 165.646 83.7812ZM105.682 83.8828C105.446 84.1758 105.21 84.47 104.976 84.7656C105.21 84.47 105.446 84.1758 105.682 83.8828ZM106.629 82.7158C106.402 82.9927 106.176 83.2706 105.95 83.5498C106.176 83.2706 106.402 82.9927 106.629 82.7158ZM165.768 83.4287C165.85 83.1948 165.931 82.9623 166.01 82.7305C165.931 82.9623 165.85 83.1948 165.768 83.4287ZM107.581 81.5625C107.366 81.8205 107.152 82.0798 106.938 82.3398C107.152 82.0798 107.366 81.8205 107.581 81.5625ZM166.2 82.1553C166.262 81.9685 166.324 81.7831 166.384 81.5977C166.324 81.7831 166.262 81.9685 166.2 82.1553ZM108.612 80.3379C108.417 80.568 108.221 80.7985 108.026 81.0303C108.221 80.7985 108.417 80.568 108.612 80.3379ZM166.575 80.9863C166.624 80.8299 166.672 80.674 166.719 80.5186C166.672 80.674 166.624 80.8299 166.575 80.9863ZM166.883 79.9629C166.942 79.7601 167.001 79.5586 167.058 79.3574C167.001 79.5586 166.942 79.7601 166.883 79.9629ZM109.63 79.1494C109.408 79.406 109.187 79.6642 108.966 79.9229C109.187 79.6642 109.408 79.406 109.63 79.1494ZM120.706 79.4277C120.615 79.5259 120.525 79.6251 120.435 79.7236C120.547 79.6015 120.659 79.479 120.771 79.3574L120.706 79.4277ZM167.188 78.8809C167.24 78.6887 167.29 78.4973 167.34 78.3066C167.29 78.4973 167.24 78.6887 167.188 78.8809ZM110.893 77.708C110.609 78.0285 110.325 78.3508 110.043 78.6748C110.325 78.3508 110.609 78.0285 110.893 77.708ZM167.457 77.8506C167.512 77.6327 167.566 77.416 167.617 77.2002C167.566 77.416 167.512 77.6327 167.457 77.8506ZM115.128 73.1074C113.718 74.5792 112.325 76.0921 110.947 77.6455C112.325 76.0921 113.718 74.5792 115.128 73.1074ZM167.718 76.7627C167.763 76.5667 167.808 76.372 167.85 76.1777C167.808 76.372 167.763 76.5667 167.718 76.7627ZM167.949 75.7061C167.986 75.5293 168.021 75.3531 168.055 75.1777C168.021 75.3531 167.986 75.5293 167.949 75.7061ZM168.15 74.6719C168.182 74.5006 168.212 74.33 168.241 74.1602C168.212 74.33 168.182 74.5006 168.15 74.6719ZM168.313 73.7256C168.351 73.4908 168.387 73.2574 168.42 73.0254C168.387 73.2574 168.351 73.4908 168.313 73.7256ZM168.463 72.7197C168.488 72.5356 168.511 72.3523 168.533 72.1699C168.511 72.3523 168.488 72.5356 168.463 72.7197ZM168.586 71.7285C168.603 71.5707 168.618 71.4133 168.633 71.2568C168.618 71.4133 168.603 71.5707 168.586 71.7285ZM168.681 70.7627C168.691 70.637 168.698 70.5115 168.707 70.3867C168.698 70.5115 168.691 70.637 168.681 70.7627ZM118.36 69.9033C118.121 70.1293 117.882 70.358 117.643 70.5879C117.882 70.358 118.121 70.1293 118.36 69.9033ZM119.408 68.9297C119.211 69.1098 119.016 69.2928 118.819 69.4756C119.016 69.2928 119.211 69.1098 119.408 68.9297ZM120.523 67.9268C120.313 68.113 120.104 68.302 119.895 68.4912C120.104 68.302 120.313 68.113 120.523 67.9268ZM121.597 66.9912C121.376 67.1807 121.156 67.3726 120.936 67.5654C121.156 67.3726 121.376 67.1807 121.597 66.9912ZM122.678 66.0791C122.483 66.2408 122.289 66.4041 122.095 66.5684C122.289 66.4041 122.483 66.2408 122.678 66.0791ZM137.193 64.5566H137.194H137.193ZM123.799 65.1641C123.585 65.336 123.371 65.5096 123.157 65.6846C123.371 65.5096 123.585 65.336 123.799 65.1641ZM124.87 64.3184C124.674 64.4709 124.477 64.6252 124.281 64.7803C124.477 64.6252 124.674 64.4709 124.87 64.3184ZM126.042 63.4268C125.825 63.5886 125.609 63.7511 125.393 63.916C125.609 63.7511 125.825 63.5886 126.042 63.4268ZM127.133 62.626C126.923 62.7775 126.713 62.9297 126.503 63.084C126.713 62.9297 126.923 62.7775 127.133 62.626ZM128.304 61.7969C128.07 61.9586 127.837 62.1219 127.604 62.2871C127.837 62.1219 128.07 61.9586 128.304 61.7969ZM129.433 61.0303C129.188 61.1936 128.942 61.3572 128.697 61.5244C128.942 61.3572 129.188 61.1936 129.433 61.0303ZM130.488 60.3389C130.27 60.4788 130.052 60.6188 129.834 60.7617C130.052 60.6188 130.27 60.4788 130.488 60.3389ZM131.645 59.6133C131.423 59.7496 131.2 59.8851 130.979 60.0244C131.2 59.8851 131.423 59.7496 131.645 59.6133ZM164.732 56.4912C164.813 56.5733 164.893 56.6564 164.971 56.7412C164.893 56.6564 164.813 56.5733 164.732 56.4912ZM163.414 55.3633H163.415H163.414ZM149.938 52.9824C149.533 53.0231 149.129 53.0708 148.725 53.125L149.332 53.0488C149.534 53.0252 149.736 53.0027 149.938 52.9824ZM152.987 52.8047C152.58 52.8115 152.172 52.8254 151.766 52.8457L152.377 52.8203C152.58 52.8136 152.784 52.8081 152.987 52.8047ZM149.083 197.698C149.102 197.743 149.119 197.787 149.138 197.831C149.119 197.787 149.102 197.743 149.083 197.698ZM96.6992 151.957L96.7197 151.948C96.535 152.025 96.3499 152.099 96.165 152.174C96.343 152.102 96.5214 152.031 96.6992 151.957ZM163.758 88.5938C163.92 88.2126 164.08 87.8325 164.235 87.4531C164.08 87.8325 163.92 88.2126 163.758 88.5938Z" fill="#F73E6A"/>
</svg>
