<svg width="207" height="169" viewBox="0 0 207 169" fill="none" xmlns="http://www.w3.org/2000/svg">
<path d="M153.519 140.2C152.319 140.2 151.919 139.467 152.319 138C153.919 131.6 156.519 125.8 160.119 120.6C163.852 115.267 168.252 110.2 173.319 105.4C178.519 100.6 184.052 95.7334 189.919 90.8C187.652 91.0667 185.786 91.4001 184.319 91.8001C182.852 92.2001 180.586 92.4 177.519 92.4C174.852 92.4 171.986 92.2001 168.919 91.8001C165.986 91.2667 163.452 90.4667 161.319 89.4C159.186 88.3334 158.119 86.8001 158.119 84.8C158.119 83.2 158.519 81.8667 159.319 80.8C160.252 79.7334 161.252 78.7334 162.319 77.8C162.986 77.1334 163.586 76.8 164.119 76.8C164.652 76.8 164.919 77.1334 164.919 77.8C164.919 78.6001 164.519 79.4 163.719 80.2001C162.652 81.2667 162.119 82.2001 162.119 83.0001C162.119 84.3334 163.319 85.3334 165.719 86.0001C168.252 86.5334 171.252 86.8 174.719 86.8C178.719 86.8 182.852 86.4667 187.119 85.8001C191.519 85.1334 194.986 84.3334 197.519 83.4C199.119 82.7334 200.252 82.2 200.919 81.8C201.719 81.2667 202.386 81 202.919 81C203.986 81 204.852 81.6 205.519 82.8C206.319 84 206.719 85.2667 206.719 86.6001C206.719 88.2001 206.186 89.2667 205.119 89.8C198.586 93.6667 192.119 97.6001 185.719 101.6C179.319 105.467 173.652 110 168.719 115.2C163.786 120.4 160.119 126.933 157.719 134.8C159.852 133.467 162.719 132 166.319 130.4C170.052 128.667 173.986 127.2 178.119 126C182.386 124.667 186.252 124 189.719 124C193.986 124 196.652 124.8 197.719 126.4C198.919 127.867 199.519 129.2 199.519 130.4C199.519 131.467 199.452 132.533 199.319 133.6C199.319 134.533 199.186 135.333 198.919 136C198.386 137.2 197.719 137.8 196.919 137.8C196.386 137.8 196.319 137.4 196.719 136.6C196.986 136.2 197.186 135.867 197.319 135.6C197.452 135.2 197.519 134.733 197.519 134.2C197.519 132.467 195.986 131.333 192.919 130.8C189.852 130.267 186.786 130 183.719 130C179.586 130 174.986 130.933 169.919 132.8C164.986 134.533 160.919 136.333 157.719 138.2C155.186 139.533 153.786 140.2 153.519 140.2Z" fill="url(#paint0_linear_748_10)"/>
<path d="M140.106 78.1999C138.906 78.1999 138.039 77.5999 137.506 76.3999C137.106 75.0666 136.906 74.1332 136.906 73.5999C136.906 71.4666 137.506 69.4666 138.706 67.5999C140.039 65.5999 141.506 64.5332 143.106 64.3999H143.706C145.306 64.3999 146.373 64.7999 146.906 65.5999C147.573 66.2666 147.906 67.1332 147.906 68.1999C147.906 70.1999 147.039 72.3999 145.306 74.7999C143.573 77.0666 141.839 78.1999 140.106 78.1999ZM129.906 149.8C125.373 149.8 122.306 148.067 120.706 144.6C119.106 141.133 118.306 137.133 118.306 132.6C118.306 128.067 118.773 123.333 119.706 118.4C120.773 113.333 121.906 108.733 123.106 104.6C124.439 100.467 125.439 97.5332 126.106 95.7999C127.573 92.7332 129.039 90.1332 130.506 87.9999C131.973 85.7332 133.573 84.5999 135.306 84.5999C136.506 84.5999 137.373 85.0666 137.906 85.9999C138.573 86.7999 138.906 87.8666 138.906 89.1999C138.906 91.8666 138.173 94.5999 136.706 97.3999C135.239 100.067 133.906 102.6 132.706 105C130.039 110.467 127.906 115.333 126.306 119.6C124.839 123.867 124.106 129.2 124.106 135.6C124.106 139.733 124.506 142.733 125.306 144.6C126.239 146.467 127.506 147.4 129.106 147.4C131.239 147.4 133.706 146.2 136.506 143.8C139.306 141.267 142.173 137.933 145.106 133.8C148.039 129.667 150.639 125.2 152.906 120.4C154.373 117.333 155.506 115.8 156.306 115.8C156.839 115.8 157.106 116.333 157.106 117.4C157.106 118.867 156.506 121 155.306 123.8C154.239 126.467 152.906 129.2 151.306 132C149.839 134.8 148.439 137 147.106 138.6C144.839 141.533 142.239 144.133 139.306 146.4C136.373 148.667 133.239 149.8 129.906 149.8Z" fill="url(#paint1_linear_748_10)"/>
<path d="M5.5999 168.4C4.13324 168.4 2.93324 167.933 1.9999 167C0.933235 166.2 0.399902 165.067 0.399902 163.6C0.399902 161.733 1.33324 159.533 3.1999 157C4.93324 154.467 7.86657 151.667 11.9999 148.6C12.6666 146.867 13.1332 145.267 13.3999 143.8C13.7999 142.333 14.1332 140.733 14.3999 139C15.3332 133.133 16.9999 127.2 19.3999 121.2C21.7999 115.067 24.1999 109.333 26.5999 104C24.0666 103.467 21.5332 101.467 18.9999 98.0001C16.5999 94.5334 15.3999 90.8667 15.3999 87C15.3999 86.0667 15.5999 84.5334 15.9999 82.4C16.3999 80.1334 17.0666 79.0001 17.9999 79.0001C19.1999 79.0001 19.7999 80 19.7999 82C19.7999 84 19.7999 85.4 19.7999 86.2001C19.7999 89.0001 20.5999 91.8001 22.1999 94.6001C23.7999 97.4001 25.7332 99.4 27.9999 100.6C30.2666 95.6667 33.1332 89.8667 36.5999 83.2001C40.0666 76.4001 43.9999 69.2667 48.3999 61.8C52.7999 54.2 57.5999 46.8001 62.7999 39.6001C67.9999 32.4 73.4666 25.8667 79.1999 20.0001C85.0666 14.1334 91.1332 9.46671 97.3999 6.00004C103.667 2.53338 110.067 0.800049 116.6 0.800049C121.933 0.800049 125.8 2.20005 128.2 5.00004C130.6 7.66672 131.8 11.3334 131.8 16C131.8 20.9334 130.6 26.6 128.2 33.0001C125.8 39.4001 122.4 46.0667 118 53.0001C113.733 59.8001 108.733 66.4667 103 73.0001C97.2666 79.4001 90.9999 85.2667 84.1999 90.6001C77.3999 95.8001 70.3332 99.9334 62.9999 103C55.6666 106.067 48.3332 107.6 40.9999 107.6C39.5332 107.6 38.0666 107.533 36.5999 107.4C35.1332 107.133 33.7332 106.733 32.3999 106.2C29.7332 112.467 27.2666 118.733 24.9999 125C22.7332 131.267 20.9332 137.8 19.5999 144.6C29.8666 138.333 40.9999 133.8 52.9999 131C64.9999 128.2 76.9999 126.8 88.9999 126.8C92.1999 126.8 95.8666 127.4 99.9999 128.6C104.133 129.667 107.667 131.4 110.6 133.8C113.667 136.2 115.2 139.467 115.2 143.6C115.2 146.933 114.867 148.6 114.2 148.6C113.533 148.6 112.733 147.4 111.8 145C109.933 140.2 107 137.2 103 136C98.9999 134.667 94.5999 134 89.7999 134C81.6666 134 74.6666 134.4 68.7999 135.2C63.0666 135.867 57.7332 136.933 52.7999 138.4C47.9999 139.867 42.9999 141.667 37.7999 143.8C32.5999 145.933 26.4666 148.4 19.3999 151.2C18.3332 157.333 16.3332 161.733 13.3999 164.4C10.5999 167.067 7.9999 168.4 5.5999 168.4ZM39.9999 104C47.0666 104 54.0666 102.467 60.9999 99.4C68.0666 96.2 74.7999 92 81.1999 86.8C87.7332 81.4667 93.7332 75.6 99.1999 69.2001C104.667 62.8 109.4 56.3334 113.4 49.8C117.533 43.1334 120.733 36.8667 123 31C125.267 25 126.4 19.9334 126.4 15.8C126.4 12.7334 125.667 10.3334 124.2 8.60004C122.867 6.86671 120.733 6.00004 117.8 6.00004C112.867 6.00004 107.667 7.73337 102.2 11.2C96.8666 14.6667 91.3999 19.3334 85.7999 25.2C80.1999 31.0667 74.7332 37.5334 69.3999 44.6C64.1999 51.6667 59.2666 58.8667 54.5999 66.2001C50.0666 73.4001 45.9999 80.2667 42.3999 86.8C38.7999 93.2 35.9999 98.6001 33.9999 103C34.6666 103.4 35.6666 103.667 36.9999 103.8C38.3332 103.933 39.3332 104 39.9999 104Z" fill="url(#paint2_linear_748_10)"/>
<defs>
<linearGradient id="paint0_linear_748_10" x1="-1.5" y1="165" x2="212" y2="86" gradientUnits="userSpaceOnUse">
<stop stop-color="#4A8EF5"/>
<stop offset="0.499746" stop-color="#F73E6A"/>
<stop offset="1" stop-color="#F9AD77"/>
</linearGradient>
<linearGradient id="paint1_linear_748_10" x1="-1.49999" y1="165" x2="212" y2="86" gradientUnits="userSpaceOnUse">
<stop stop-color="#4A8EF5"/>
<stop offset="0.499746" stop-color="#F73E6A"/>
<stop offset="1" stop-color="#F9AD77"/>
</linearGradient>
<linearGradient id="paint2_linear_748_10" x1="-1.5" y1="165" x2="212" y2="86" gradientUnits="userSpaceOnUse">
<stop stop-color="#4A8EF5"/>
<stop offset="0.499746" stop-color="#F73E6A"/>
<stop offset="1" stop-color="#F9AD77"/>
</linearGradient>
</defs>
</svg>
