<svg width="261" height="213" viewBox="0 0 261 213" fill="none" xmlns="http://www.w3.org/2000/svg">
<path d="M193.702 176.372C192.184 176.372 191.678 175.445 192.184 173.589C194.208 165.493 197.497 158.156 202.051 151.578C206.774 144.832 212.34 138.422 218.749 132.35C225.327 126.278 232.327 120.122 239.748 113.881C236.881 114.219 234.519 114.64 232.664 115.146C230.809 115.652 227.941 115.905 224.062 115.905C220.689 115.905 217.062 115.652 213.183 115.146C209.472 114.472 206.268 113.46 203.569 112.11C200.87 110.761 199.521 108.821 199.521 106.291C199.521 104.267 200.027 102.581 201.039 101.231C202.22 99.8821 203.485 98.617 204.834 97.4364C205.677 96.593 206.436 96.1714 207.111 96.1714C207.786 96.1714 208.123 96.593 208.123 97.4364C208.123 98.4484 207.617 99.4604 206.605 100.472C205.256 101.822 204.581 103.002 204.581 104.014C204.581 105.701 206.099 106.966 209.135 107.809C212.34 108.484 216.135 108.821 220.52 108.821C225.58 108.821 230.809 108.4 236.206 107.556C241.772 106.713 246.157 105.701 249.362 104.52C251.386 103.677 252.82 103.002 253.663 102.496C254.675 101.822 255.518 101.484 256.193 101.484C257.542 101.484 258.639 102.243 259.482 103.761C260.494 105.279 261 106.882 261 108.568C261 110.592 260.325 111.942 258.976 112.616C250.711 117.508 242.531 122.483 234.435 127.543C226.339 132.435 219.171 138.169 212.93 144.747C206.689 151.325 202.051 159.59 199.015 169.541C201.714 167.855 205.34 165.999 209.894 163.975C214.617 161.783 219.592 159.927 224.821 158.409C230.218 156.723 235.11 155.879 239.495 155.879C244.892 155.879 248.266 156.891 249.615 158.915C251.133 160.771 251.892 162.457 251.892 163.975C251.892 165.325 251.808 166.674 251.639 168.023C251.639 169.204 251.47 170.216 251.133 171.059C250.458 172.577 249.615 173.336 248.603 173.336C247.928 173.336 247.844 172.83 248.35 171.818C248.687 171.312 248.94 170.891 249.109 170.553C249.278 170.047 249.362 169.457 249.362 168.782C249.362 166.59 247.422 165.156 243.543 164.481C239.664 163.807 235.784 163.469 231.905 163.469C226.676 163.469 220.857 164.65 214.448 167.011C208.207 169.204 203.063 171.481 199.015 173.842C195.81 175.529 194.039 176.372 193.702 176.372Z" fill="black"/>
<path d="M176.736 97.9443C175.218 97.9443 174.122 97.1853 173.447 95.6673C172.941 93.9807 172.688 92.8 172.688 92.1253C172.688 89.4267 173.447 86.8967 174.965 84.5353C176.652 82.0053 178.507 80.656 180.531 80.4873H181.29C183.314 80.4873 184.664 80.9933 185.338 82.0053C186.182 82.8487 186.603 83.945 186.603 85.2943C186.603 87.8243 185.507 90.6073 183.314 93.6433C181.122 96.5107 178.929 97.9443 176.736 97.9443ZM163.833 188.518C158.099 188.518 154.219 186.326 152.195 181.94C150.171 177.555 149.159 172.495 149.159 166.76C149.159 161.026 149.75 155.038 150.93 148.797C152.28 142.388 153.713 136.569 155.231 131.34C156.918 126.112 158.183 122.401 159.026 120.208C160.882 116.329 162.737 113.04 164.592 110.341C166.448 107.474 168.472 106.04 170.664 106.04C172.182 106.04 173.279 106.631 173.953 107.811C174.797 108.823 175.218 110.173 175.218 111.859C175.218 115.233 174.291 118.69 172.435 122.232C170.58 125.606 168.893 128.81 167.375 131.846C164.002 138.762 161.303 144.918 159.279 150.315C157.424 155.713 156.496 162.459 156.496 170.555C156.496 175.784 157.002 179.579 158.014 181.94C159.195 184.302 160.797 185.482 162.821 185.482C165.52 185.482 168.64 183.964 172.182 180.928C175.724 177.724 179.351 173.507 183.061 168.278C186.772 163.05 190.061 157.399 192.928 151.327C194.784 147.448 196.217 145.508 197.229 145.508C197.904 145.508 198.241 146.183 198.241 147.532C198.241 149.388 197.482 152.086 195.964 155.628C194.615 159.002 192.928 162.459 190.904 166.001C189.049 169.543 187.278 172.326 185.591 174.35C182.724 178.061 179.435 181.35 175.724 184.217C172.014 187.085 168.05 188.518 163.833 188.518Z" fill="black"/>
<path d="M6.57801 212.044C4.72267 212.044 3.20467 211.454 2.024 210.273C0.674667 209.261 0 207.828 0 205.972C0 203.611 1.18067 200.828 3.542 197.623C5.73467 194.419 9.44534 190.877 14.674 186.997C15.5174 184.805 16.1077 182.781 16.445 180.925C16.951 179.07 17.3727 177.046 17.71 174.853C18.8907 167.432 20.999 159.926 24.035 152.336C27.071 144.578 30.107 137.325 33.143 130.578C29.9384 129.904 26.7337 127.374 23.529 122.988C20.493 118.603 18.975 113.965 18.975 109.073C18.975 107.893 19.228 105.953 19.734 103.254C20.24 100.387 21.0834 98.9532 22.264 98.9532C23.782 98.9532 24.541 100.218 24.541 102.748C24.541 105.278 24.541 107.049 24.541 108.061C24.541 111.603 25.553 115.145 27.577 118.687C29.601 122.229 32.0467 124.759 34.914 126.277C37.7814 120.037 41.4077 112.7 45.7931 104.266C50.1784 95.6642 55.1541 86.6405 60.7201 77.1951C66.2861 67.5811 72.3581 58.2201 78.9361 49.1121C85.5141 40.0041 92.4295 31.7394 99.6821 24.3181C107.103 16.8967 114.778 10.9934 122.705 6.60803C130.632 2.2227 138.729 0.0300293 146.993 0.0300293C153.74 0.0300293 158.631 1.80103 161.667 5.34303C164.703 8.71637 166.221 13.3547 166.221 19.258C166.221 25.4987 164.703 32.6671 161.667 40.7631C158.631 48.8591 154.33 57.2924 148.764 66.0631C143.367 74.6651 137.042 83.0985 129.789 91.3631C122.536 99.4592 114.609 106.881 106.007 113.627C97.4051 120.205 88.4658 125.434 79.1891 129.313C69.9124 133.193 60.6357 135.132 51.3591 135.132C49.5037 135.132 47.6484 135.048 45.7931 134.879C43.9377 134.542 42.1667 134.036 40.4801 133.361C37.1067 141.289 33.9864 149.216 31.119 157.143C28.2517 165.071 25.9747 173.335 24.288 181.937C37.2754 174.01 51.3591 168.275 66.5391 164.733C81.7191 161.191 96.8991 159.42 112.079 159.42C116.127 159.42 120.765 160.179 125.994 161.697C131.223 163.047 135.693 165.239 139.403 168.275C143.283 171.311 145.222 175.444 145.222 180.672C145.222 184.889 144.801 186.997 143.957 186.997C143.114 186.997 142.102 185.479 140.921 182.443C138.56 176.371 134.849 172.576 129.789 171.058C124.729 169.372 119.163 168.528 113.091 168.528C102.802 168.528 93.9475 169.034 86.5261 170.046C79.2734 170.89 72.5268 172.239 66.2861 174.094C60.2141 175.95 53.8891 178.227 47.3111 180.925C40.7331 183.624 32.9744 186.744 24.035 190.286C22.6857 198.045 20.1557 203.611 16.445 206.984C12.903 210.358 9.61401 212.044 6.57801 212.044ZM50.0941 130.578C59.0334 130.578 67.8884 128.639 76.6591 124.759C85.5985 120.711 94.1161 115.398 102.212 108.82C110.477 102.073 118.067 94.6522 124.982 86.5561C131.898 78.4601 137.885 70.2798 142.945 62.0151C148.174 53.5818 152.222 45.6544 155.089 38.2331C157.957 30.6431 159.39 24.2337 159.39 19.0051C159.39 15.1257 158.463 12.0897 156.607 9.89704C154.921 7.70436 152.222 6.60803 148.511 6.60803C142.271 6.60803 135.693 8.8007 128.777 13.186C122.031 17.5714 115.115 23.4747 108.031 30.8961C100.947 38.3174 94.0318 46.4978 87.2851 55.4371C80.7071 64.3764 74.4664 73.4845 68.5631 82.7611C62.8284 91.8692 57.6841 100.555 53.1301 108.82C48.5761 116.916 45.0341 123.747 42.5041 129.313C43.3474 129.819 44.6124 130.157 46.2991 130.325C47.9857 130.494 49.2507 130.578 50.0941 130.578Z" fill="black"/>
</svg>
